<?xml version="1.0" encoding="UTF-8"?>
<!-- Generated by Pixelmator Pro 3.6.17 -->
<svg width="470" height="470" viewBox="0 0 470 470" xmlns="http://www.w3.org/2000/svg">
    <g id="Group">
        <path id="Path" fill="#a78bfa" stroke="none" d="M 33 73 L 137 13 L 263 83 L 159 143 Z"/>
        <path id="path1" fill="#a78bfa" stroke="none" opacity="0.92" d="M 33 73 L 33 213 L 159 283 L 159 143 Z"/>
        <path id="path2" fill="#ffffff" stroke="none" d="M 207 247 L 311 187 L 431 257 L 327 317 Z"/>
        <path id="path3" fill="#a78bfa" stroke="none" opacity="0.92" d="M 207 247 L 207 387 L 327 457 L 327 317 Z"/>
        <path id="path4" fill="#fdba74" stroke="none" d="M 327 317 L 431 257 L 431 397 L 327 457 Z"/>
        <path id="path5" fill="none" stroke="#2b1b4b" stroke-width="22" stroke-linecap="round" stroke-linejoin="round" d="M 33 73 L 137 13 L 263 83 L 159 143 L 33 73"/>
        <path id="path6" fill="none" stroke="#2b1b4b" stroke-width="22" stroke-linecap="round" stroke-linejoin="round" d="M 33 73 L 33 213 L 159 283 L 159 143"/>
        <path id="path7" fill="none" stroke="#2b1b4b" stroke-width="22" stroke-linecap="round" stroke-linejoin="round" d="M 159 143 L 263 83 L 263 223"/>
        <path id="path8" fill="none" stroke="#2b1b4b" stroke-width="22" stroke-linecap="round" stroke-linejoin="round" d="M 207 247 L 311 187 L 431 257 L 327 317 L 207 247"/>
        <path id="path9" fill="none" stroke="#2b1b4b" stroke-width="22" stroke-linecap="round" stroke-linejoin="round" d="M 207 247 L 207 387 L 327 457 L 327 317"/>
        <path id="path10" fill="none" stroke="#2b1b4b" stroke-width="22" stroke-linecap="round" stroke-linejoin="round" d="M 327 317 L 431 257 L 431 397 L 327 457"/>
        <path id="path11" fill="none" stroke="#2b1b4b" stroke-width="22" stroke-linecap="round" stroke-linejoin="round" d="M 245 163 L 365 163"/>
        <path id="path12" fill="none" stroke="#2b1b4b" stroke-width="22" stroke-linecap="round" stroke-linejoin="round" d="M 175 197 L 335 117"/>
        <path id="path13" fill="none" stroke="#2b1b4b" stroke-width="22" stroke-linecap="round" stroke-linejoin="round" d="M 365 163 L 365 241"/>
    </g>
</svg>
