<?xml version="1.0" standalone="no"?>
<!DOCTYPE svg PUBLIC "-//W3C//DTD SVG 20010904//EN"
 "http://www.w3.org/TR/2001/REC-SVG-20010904/DTD/svg10.dtd">
<svg version="1.0" xmlns="http://www.w3.org/2000/svg"
 width="648.000000pt" height="564.000000pt" viewBox="0 0 648.000000 564.000000"
 preserveAspectRatio="xMidYMid meet">

<g transform="translate(0.000000,564.000000) scale(0.100000,-0.100000)"
fill="#000000" stroke="none">
<path d="M5392 5379 c-26 -10 -36 -28 -56 -108 -24 -94 -47 -140 -101 -199
-56 -62 -117 -96 -219 -121 -101 -25 -116 -35 -116 -75 0 -45 21 -60 123 -89
190 -53 271 -147 336 -384 13 -46 38 -61 85 -49 25 6 36 28 56 111 7 28 23 72
36 99 13 28 21 54 18 58 -3 5 -2 7 3 6 4 -2 29 18 55 44 41 41 145 110 173
114 56 8 126 27 131 36 4 6 7 30 8 54 1 49 -5 54 -104 74 -164 33 -280 148
-320 320 -23 101 -52 129 -108 109z"/>
<path d="M1770 4814 c-138 -25 -301 -93 -425 -177 -80 -55 -227 -197 -280
-272 -98 -138 -161 -279 -201 -447 -16 -66 -18 -164 -21 -1098 -4 -1130 -4
-1144 57 -1331 80 -242 222 -434 444 -598 l56 -42 0 -337 c0 -309 2 -340 19
-379 31 -66 87 -93 158 -74 22 6 202 117 404 249 200 131 398 259 439 285 144
89 48 81 1095 88 912 5 932 6 1012 27 243 64 441 178 599 344 166 176 274 408
304 648 13 110 13 2016 0 2120 -25 190 -83 347 -183 498 -160 240 -384 400
-677 484 l-75 22 -1325 2 c-1086 2 -1339 0 -1400 -12z m1068 -1455 l-3 -751
-71 -18 c-71 -18 -154 -55 -205 -91 -14 -10 -29 -16 -33 -12 -3 3 -6 91 -6
195 l0 188 -306 0 -305 0 -21 -47 c-11 -27 -33 -75 -48 -108 -16 -33 -44 -96
-62 -140 l-34 -80 -172 -3 c-101 -1 -172 1 -172 7 0 5 14 40 31 78 31 68 101
227 254 578 335 769 358 814 434 874 94 74 122 79 449 80 l272 1 -2 -751z
m794 717 c41 -13 103 -42 139 -62 67 -40 202 -168 232 -221 l17 -31 -77 -65
c-43 -35 -101 -80 -129 -101 l-52 -36 -39 57 c-79 116 -204 177 -313 154 -66
-14 -105 -42 -130 -91 -19 -37 -20 -60 -20 -400 0 -339 1 -363 20 -399 26 -51
61 -78 128 -97 143 -42 327 52 366 186 l13 45 -163 3 -163 2 -3 157 c-2 111 0
157 9 160 6 2 263 3 570 1 487 -3 562 -5 593 -19 98 -45 125 -159 58 -244 -39
-50 -66 -55 -322 -55 l-236 0 -6 -27 c-18 -83 -29 -115 -62 -183 -69 -143
-230 -269 -402 -316 -81 -22 -271 -25 -350 -5 -173 43 -289 145 -341 298 -19
57 -20 81 -17 534 l3 474 33 67 c55 112 168 199 307 235 79 20 246 10 337 -21z
m828 -1515 c67 -71 67 -73 -62 -396 -45 -110 -102 -254 -128 -320 -254 -639
-272 -681 -298 -702 -74 -62 -192 -15 -192 77 0 12 39 116 86 233 48 117 97
239 110 272 119 311 336 833 354 852 36 37 85 32 130 -16z m-1574 -205 c16
-13 19 -29 22 -128 l3 -113 -195 -155 c-108 -85 -196 -158 -196 -161 0 -4 17
-19 38 -35 128 -96 327 -272 339 -301 16 -39 17 -143 2 -177 -15 -33 -34 -39
-67 -22 -48 26 -566 446 -584 474 -23 35 -23 89 1 128 16 27 150 143 376 326
39 31 79 65 90 75 44 41 128 103 139 103 7 0 21 -6 32 -14z m713 -25 c52 -37
53 -33 -92 -551 -36 -129 -80 -289 -98 -355 -39 -143 -62 -175 -129 -175 -47
0 -92 20 -114 52 -24 34 -19 90 18 217 19 64 78 271 131 461 53 190 98 353
101 364 6 16 14 18 79 14 54 -4 81 -11 104 -27z m1116 -351 c55 -45 117 -98
138 -120 61 -64 48 -115 -50 -192 -32 -25 -118 -94 -191 -152 -136 -108 -163
-120 -217 -100 -26 10 -47 62 -39 97 10 46 22 62 94 119 36 29 93 77 128 106
l62 55 -65 59 c-71 65 -77 84 -49 141 24 47 44 67 68 67 12 0 66 -36 121 -80z"/>
<path d="M2328 3755 c-37 -20 -54 -53 -153 -280 -48 -110 -96 -219 -106 -242
l-18 -43 234 0 235 0 0 290 0 290 -82 0 c-53 -1 -93 -6 -110 -15z"/>
</g>
</svg>
