<svg width="563" height="648" version="1.1" xmlns="http://www.w3.org/2000/svg" desc="Created with imagetracer.js version 1.2.6" ><path fill="rgb(209,209,208)" stroke="rgb(209,209,208)" stroke-width="1" opacity="0.1803921568627451" d="M 170.5 189 L 277.5 189 L 278 191.5 L 273.5 198 L 274 196.5 L 277 190 L 170.5 190 L 170.5 189 Z " /><path fill="rgb(209,209,208)" stroke="rgb(209,209,208)" stroke-width="1" opacity="0.1803921568627451" d="M 309 189 L 437 189.5 L 310.5 190 L 309 191.5 L 307.5 194 L 308 192.5 L 309 189 Z " /><path fill="rgb(209,209,208)" stroke="rgb(209,209,208)" stroke-width="1" opacity="0.1803921568627451" d="M 159.5 190 L 167 190.5 L 158.5 192 L 159.5 190 Z " /><path fill="rgb(209,209,208)" stroke="rgb(209,209,208)" stroke-width="1" opacity="0.1803921568627451" d="M 439.5 190 Q 451.7 190.3 459 195.5 L 457.5 196 Q 450.9 191.1 439.5 191 L 439.5 190 Z " /><path fill="rgb(209,209,208)" stroke="rgb(209,209,208)" stroke-width="1" opacity="0.1803921568627451" d="M 150.5 192 L 154 192.5 L 150.5 193 L 150.5 192 Z " /><path fill="rgb(209,209,208)" stroke="rgb(209,209,208)" stroke-width="1" opacity="0.1803921568627451" d="M 146.5 193 L 149 193.5 L 143.5 195 L 143.5 194 L 146.5 193 Z " /><path fill="rgb(209,209,208)" stroke="rgb(209,209,208)" stroke-width="1" opacity="0.1803921568627451" d="M 140.5 195 L 142 195.5 L 133.5 199 L 134.5 197 L 140.5 195 Z " /><path fill="rgb(209,209,208)" stroke="rgb(209,209,208)" stroke-width="1" opacity="0.1803921568627451" d="M 306.5 195 L 306 196.5 L 304.5 199 L 304 197.5 L 306.5 195 Z " /><path fill="rgb(209,209,208)" stroke="rgb(209,209,208)" stroke-width="1" opacity="0.1803921568627451" d="M 460.5 196 Q 472.8 201.2 481 210.5 L 482.5 213 Q 484.8 212.3 484 214.5 L 484.5 216 L 473.5 205 L 460.5 197 L 460.5 196 Z " /><path fill="rgb(209,209,208)" stroke="rgb(209,209,208)" stroke-width="1" opacity="0.1803921568627451" d="M 130.5 199 L 132 199.5 L 117.5 208 L 119.5 205 L 130.5 199 Z " /><path fill="rgb(209,209,208)" stroke="rgb(209,209,208)" stroke-width="1" opacity="0.1803921568627451" d="M 272.5 199 L 272 200.5 L 258.5 224 L 259 222.5 L 272.5 199 Z " /><path fill="rgb(209,209,208)" stroke="rgb(209,209,208)" stroke-width="1" opacity="0.1803921568627451" d="M 303.5 200 L 303 201.5 L 296.5 213 L 297 211.5 L 303.5 200 Z " /><path fill="rgb(209,209,208)" stroke="rgb(209,209,208)" stroke-width="1" opacity="0.1803921568627451" d="M 115.5 208 L 114.5 210 L 110.5 213 L 113.5 209 L 115.5 208 Z " /><path fill="rgb(209,209,208)" stroke="rgb(209,209,208)" stroke-width="1" opacity="0.1803921568627451" d="M 108.5 213 L 105.5 217 L 91.5 230 L 104.5 216 L 108.5 213 Z " /><path fill="rgb(209,209,208)" stroke="rgb(209,209,208)" stroke-width="1" opacity="0.1803921568627451" d="M 295.5 214 L 295 215.5 L 281.5 239 L 282 237.5 L 295.5 214 Z " /><path fill="rgb(209,209,208)" stroke="rgb(209,209,208)" stroke-width="1" opacity="0.1803921568627451" d="M 486.5 217 L 492 223.5 L 499 237.5 L 506 263.5 L 504 264.5 L 502 250.5 L 498 238.5 L 491 224.5 L 486 218.5 L 486.5 217 Z " /><path fill="rgb(209,209,208)" stroke="rgb(209,209,208)" stroke-width="1" opacity="0.1803921568627451" d="M 256.5 227 L 256 228.5 L 252.5 235 L 251 234.5 L 253 234 L 256.5 227 Z " /><path fill="rgb(209,209,208)" stroke="rgb(209,209,208)" stroke-width="1" opacity="0.1803921568627451" d="M 90.5 231 L 87 235.5 L 78.5 248 L 79 246.5 Q 83.1 237.1 90.5 231 Z " /><path fill="rgb(209,209,208)" stroke="rgb(209,209,208)" stroke-width="1" opacity="0.1803921568627451" d="M 181.5 234 L 187 234.5 L 181.5 235 L 181.5 234 Z " /><path fill="rgb(209,209,208)" stroke="rgb(209,209,208)" stroke-width="1" opacity="0.1803921568627451" d="M 191.5 234 L 216 234.5 L 191.5 235 L 191.5 234 Z " /><path fill="rgb(209,209,208)" stroke="rgb(209,209,208)" stroke-width="1" opacity="0.1803921568627451" d="M 217.5 234 L 230 234.5 L 217.5 235 L 217.5 234 Z " /><path fill="rgb(209,209,208)" stroke="rgb(209,209,208)" stroke-width="1" opacity="0.1803921568627451" d="M 235.5 234 L 247 234.5 L 235.5 235 L 235.5 234 Z " /><path fill="rgb(209,209,208)" stroke="rgb(209,209,208)" stroke-width="1" opacity="0.1803921568627451" d="M 332.5 234 L 431 234.5 L 332.5 235 L 331 236.5 L 325.5 246 L 326 244.5 L 332.5 234 Z " /><path fill="rgb(209,209,208)" stroke="rgb(209,209,208)" stroke-width="1" opacity="0.1803921568627451" d="M 164.5 235 L 165 237 L 160 236.5 L 164.5 235 Z " /><path fill="rgb(209,209,208)" stroke="rgb(209,209,208)" stroke-width="1" opacity="0.1803921568627451" d="M 166.5 235 L 170 235.5 L 166.5 236 L 166.5 235 Z " /><path fill="rgb(209,209,208)" stroke="rgb(209,209,208)" stroke-width="1" opacity="0.1803921568627451" d="M 433.5 235 L 436 235.5 L 433.5 236 L 433.5 235 Z " /><path fill="rgb(209,209,208)" stroke="rgb(209,209,208)" stroke-width="1" opacity="0.1803921568627451" d="M 437.5 236 L 440.5 236 L 448 240.5 L 446.5 240 L 440.5 237 L 437.5 237 L 437.5 236 Z " /><path fill="rgb(209,209,208)" stroke="rgb(209,209,208)" stroke-width="1" opacity="0.1803921568627451" d="M 156.5 237 L 159 237.5 Q 140.9 242.4 129 253.5 Q 129.8 255.8 127.5 255 L 123.5 260 L 122 259.5 Q 134.9 243.9 156.5 237 Z " /><path fill="rgb(209,209,208)" stroke="rgb(209,209,208)" stroke-width="1" opacity="0.1803921568627451" d="M 280.5 240 L 280 241.5 L 277.5 246 L 278 244.5 L 280.5 240 Z " /><path fill="rgb(209,209,208)" stroke="rgb(209,209,208)" stroke-width="1" opacity="0.1803921568627451" d="M 449.5 241 L 455.5 248 L 449.5 241 Z " /><path fill="rgb(209,209,208)" stroke="rgb(209,209,208)" stroke-width="1" opacity="0.1803921568627451" d="M 276.5 247 L 276 248.5 L 270.5 258 L 271 256.5 L 276.5 247 Z " /><path fill="rgb(209,209,208)" stroke="rgb(209,209,208)" stroke-width="1" opacity="0.1803921568627451" d="M 324.5 247 L 324 248.5 L 317.5 260 L 318 258.5 L 324.5 247 Z " /><path fill="rgb(209,209,208)" stroke="rgb(209,209,208)" stroke-width="1" opacity="0.1803921568627451" d="M 77.5 249 L 77 250.5 L 73.5 257 L 74 255.5 L 77.5 249 Z " /><path fill="rgb(209,209,208)" stroke="rgb(209,209,208)" stroke-width="1" opacity="0.1803921568627451" d="M 456.5 249 L 457.5 251 Q 454.7 251.7 456.5 249 Z " /><path fill="rgb(209,209,208)" stroke="rgb(209,209,208)" stroke-width="1" opacity="0.1803921568627451" d="M 458.5 252 Q 463.8 257.7 464 268.5 L 463 268.5 L 463 264.5 L 458.5 252 Z " /><path fill="rgb(209,209,208)" stroke="rgb(209,209,208)" stroke-width="1" opacity="0.1803921568627451" d="M 72.5 258 L 73 259.5 L 68 271 L 66 270.5 L 72.5 258 Z " /><path fill="rgb(209,209,208)" stroke="rgb(209,209,208)" stroke-width="1" opacity="0.1803921568627451" d="M 269.5 259 L 269 260.5 L 261.5 274 L 261 272.5 L 269.5 259 Z " /><path fill="rgb(209,209,208)" stroke="rgb(209,209,208)" stroke-width="1" opacity="0.1803921568627451" d="M 316.5 261 L 316 262.5 L 309.5 274 L 310 272.5 L 316.5 261 Z " /><path fill="rgb(209,209,208)" stroke="rgb(209,209,208)" stroke-width="1" opacity="0.1803921568627451" d="M 120.5 262 L 118.5 265 L 120.5 262 Z " /><path fill="rgb(209,209,208)" stroke="rgb(209,209,208)" stroke-width="1" opacity="0.1803921568627451" d="M 117.5 266 L 115.5 269 L 117.5 266 Z " /><path fill="rgb(209,209,208)" stroke="rgb(209,209,208)" stroke-width="1" opacity="0.1803921568627451" d="M 504 266 Q 507.7 264.6 506 270.5 L 505 270.5 L 504 266 Z " /><path fill="rgb(209,209,208)" stroke="rgb(209,209,208)" stroke-width="1" opacity="0.1803921568627451" d="M 114.5 270 L 114 271.5 L 104.5 292 L 104 290.5 Q 107.7 278.7 114.5 270 Z " /><path fill="rgb(209,209,208)" stroke="rgb(209,209,208)" stroke-width="1" opacity="0.1803921568627451" d="M 464.5 270 L 465 272.5 L 464 272.5 L 464.5 270 Z " /><path fill="rgb(209,209,208)" stroke="rgb(209,209,208)" stroke-width="1" opacity="0.1803921568627451" d="M 66.5 272 L 67 273.5 L 63.5 284 L 63 280.5 L 66.5 272 Z " /><path fill="rgb(209,209,208)" stroke="rgb(209,209,208)" stroke-width="1" opacity="0.1803921568627451" d="M 505.5 273 Q 508 274 507 278.5 L 505 279.5 L 505.5 273 Z " /><path fill="rgb(209,209,208)" stroke="rgb(209,209,208)" stroke-width="1" opacity="0.1803921568627451" d="M 260.5 275 L 260 276.5 L 254.5 286 L 255 284.5 L 260.5 275 Z " /><path fill="rgb(209,209,208)" stroke="rgb(209,209,208)" stroke-width="1" opacity="0.1803921568627451" d="M 308.5 275 L 309 276.5 L 306 278.5 L 308.5 275 Z " /><path fill="rgb(209,209,208)" stroke="rgb(209,209,208)" stroke-width="1" opacity="0.1803921568627451" d="M 464.5 278 L 465 281.5 L 464 281.5 L 464.5 278 Z " /><path fill="rgb(209,209,208)" stroke="rgb(209,209,208)" stroke-width="1" opacity="0.1803921568627451" d="M 305.5 280 L 306 281.5 L 302.5 286 L 303 284.5 L 305.5 280 Z " /><path fill="rgb(209,209,208)" stroke="rgb(209,209,208)" stroke-width="1" opacity="0.1803921568627451" d="M 505.5 282 L 506 285.5 L 505 288.5 Q 507.3 289.8 504.5 291 L 504 284.5 L 505.5 282 Z " /><path fill="rgb(209,209,208)" stroke="rgb(209,209,208)" stroke-width="1" opacity="0.1803921568627451" d="M 463 283 L 465 283.5 L 463.5 288 L 463 283 Z " /><path fill="rgb(209,209,208)" stroke="rgb(209,209,208)" stroke-width="1" opacity="0.1803921568627451" d="M 62.5 285 L 63 287.5 L 62 287.5 L 62.5 285 Z " /><path fill="rgb(209,209,208)" stroke="rgb(209,209,208)" stroke-width="1" opacity="0.1803921568627451" d="M 253.5 287 L 253 288.5 L 250.5 293 L 251 291.5 L 253.5 287 Z " /><path fill="rgb(209,209,208)" stroke="rgb(209,209,208)" stroke-width="1" opacity="0.1803921568627451" d="M 300.5 289 L 300 290.5 L 291.5 305 L 293 302.5 L 300.5 289 Z " /><path fill="rgb(209,209,208)" stroke="rgb(209,209,208)" stroke-width="1" opacity="0.1803921568627451" d="M 462.5 289 L 463 291.5 L 460.5 297 L 460 295.5 L 462.5 289 Z " /><path fill="rgb(209,209,208)" stroke="rgb(209,209,208)" stroke-width="1" opacity="0.1803921568627451" d="M 60.5 292 L 61 296.5 L 59.5 304 L 59 297.5 L 60.5 292 Z " /><path fill="rgb(209,209,208)" stroke="rgb(209,209,208)" stroke-width="1" opacity="0.1803921568627451" d="M 504.5 292 L 505 293.5 Q 501.5 313.2 493 327 L 491 327 L 491 330 Q 488 328.8 489 332.5 L 482 341 L 466.5 353 L 448 360.5 L 464 388.5 L 467 391.5 L 471 401 Q 473.7 399.9 473 402.5 L 506 457.5 L 504.5 459 L 455.5 459 L 454 456.5 L 456.5 458 L 503.5 458 L 504 456.5 L 446 360.5 Q 468.5 354 482 338.5 Q 492.7 327.2 499 311.5 L 503 297.5 L 503 293.5 L 504.5 292 Z " /><path fill="rgb(209,209,208)" stroke="rgb(209,209,208)" stroke-width="1" opacity="0.1803921568627451" d="M 103.5 293 L 104 295.5 L 101.5 304 L 101 300.5 L 103.5 293 Z " /><path fill="rgb(209,209,208)" stroke="rgb(209,209,208)" stroke-width="1" opacity="0.1803921568627451" d="M 247 296 L 249 296.5 L 244.5 304 L 244 302.5 L 247 296 Z " /><path fill="rgb(209,209,208)" stroke="rgb(209,209,208)" stroke-width="1" opacity="0.1803921568627451" d="M 459.5 298 L 459 299.5 Q 455.7 307.7 448.5 312 L 444.5 314 L 445.5 312 Q 452.4 310.4 455 304.5 L 459.5 298 Z " /><path fill="rgb(209,209,208)" stroke="rgb(209,209,208)" stroke-width="1" opacity="0.1803921568627451" d="M 100.5 305 L 101 310.5 L 100 310.5 L 100.5 305 Z " /><path fill="rgb(209,209,208)" stroke="rgb(209,209,208)" stroke-width="1" opacity="0.1803921568627451" d="M 243.5 305 L 242 307.5 L 239.5 312 L 240 310.5 L 243.5 305 Z " /><path fill="rgb(209,209,208)" stroke="rgb(209,209,208)" stroke-width="1" opacity="0.1803921568627451" d="M 58.5 306 L 59 309.5 L 58 309.5 L 58.5 306 Z " /><path fill="rgb(209,209,208)" stroke="rgb(209,209,208)" stroke-width="1" opacity="0.1803921568627451" d="M 288.5 310 L 288 311.5 Q 289.1 314.8 286.5 314 L 287 312.5 L 288.5 310 Z " /><path fill="rgb(209,209,208)" stroke="rgb(209,209,208)" stroke-width="1" opacity="0.1803921568627451" d="M 58.5 311 L 59 313.5 L 58 313.5 L 58.5 311 Z " /><path fill="rgb(209,209,208)" stroke="rgb(209,209,208)" stroke-width="1" opacity="0.1803921568627451" d="M 99.5 312 L 100 316.5 L 99 316.5 L 99.5 312 Z " /><path fill="rgb(209,209,208)" stroke="rgb(209,209,208)" stroke-width="1" opacity="0.1803921568627451" d="M 238.5 313 L 238 314.5 L 235.5 319 L 236 317.5 L 238.5 313 Z " /><path fill="rgb(209,209,208)" stroke="rgb(209,209,208)" stroke-width="1" opacity="0.1803921568627451" d="M 441.5 314 L 443 314.5 L 432 318 Q 430.6 314 437.5 316 L 441.5 314 Z " /><path fill="rgb(209,209,208)" stroke="rgb(209,209,208)" stroke-width="1" opacity="0.1803921568627451" d="M 284.5 317 L 284 318.5 L 281.5 323 L 282 321.5 L 284.5 317 Z " /><path fill="rgb(209,209,208)" stroke="rgb(209,209,208)" stroke-width="1" opacity="0.1803921568627451" d="M 313 317 L 430 317.5 L 314.5 318 L 313 319.5 L 305.5 333 L 306 331.5 L 313 317 Z " /><path fill="rgb(209,209,208)" stroke="rgb(209,209,208)" stroke-width="1" opacity="0.1803921568627451" d="M 99.5 318 L 100 329.5 L 99 329.5 L 99.5 318 Z " /><path fill="rgb(209,209,208)" stroke="rgb(209,209,208)" stroke-width="1" opacity="0.1803921568627451" d="M 57.5 321 L 58 326.5 L 57 326.5 L 57.5 321 Z " /><path fill="rgb(209,209,208)" stroke="rgb(209,209,208)" stroke-width="1" opacity="0.1803921568627451" d="M 232.5 324 L 232 325.5 L 227.5 333 L 228 331.5 L 232.5 324 Z " /><path fill="rgb(209,209,208)" stroke="rgb(209,209,208)" stroke-width="1" opacity="0.1803921568627451" d="M 280.5 324 L 280 325.5 L 272 342 L 270 341.5 L 280.5 324 Z " /><path fill="rgb(209,209,208)" stroke="rgb(209,209,208)" stroke-width="1" opacity="0.1803921568627451" d="M 99.5 331 L 100 335.5 L 99 335.5 L 99.5 331 Z " /><path fill="rgb(209,209,208)" stroke="rgb(209,209,208)" stroke-width="1" opacity="0.1803921568627451" d="M 58.5 334 L 59 337.5 L 58 337.5 L 58.5 334 Z " /><path fill="rgb(209,209,208)" stroke="rgb(209,209,208)" stroke-width="1" opacity="0.1803921568627451" d="M 226.5 334 L 226 335.5 L 224.5 338 L 225 336.5 L 226.5 334 Z " /><path fill="rgb(209,209,208)" stroke="rgb(209,209,208)" stroke-width="1" opacity="0.1803921568627451" d="M 304.5 334 L 304 335.5 L 301.5 340 L 302 338.5 L 304.5 334 Z " /><path fill="rgb(209,209,208)" stroke="rgb(209,209,208)" stroke-width="1" opacity="0.1803921568627451" d="M 100.5 337 L 101 342.5 L 100 342.5 L 100.5 337 Z " /><path fill="rgb(209,209,208)" stroke="rgb(209,209,208)" stroke-width="1" opacity="0.1803921568627451" d="M 58.5 339 L 59 342.5 L 58 342.5 L 58.5 339 Z " /><path fill="rgb(209,209,208)" stroke="rgb(209,209,208)" stroke-width="1" opacity="0.1803921568627451" d="M 223.5 339 L 223 340.5 L 219.5 347 L 220 345.5 L 223.5 339 Z " /><path fill="rgb(209,209,208)" stroke="rgb(209,209,208)" stroke-width="1" opacity="0.1803921568627451" d="M 269.5 343 L 269 344.5 L 261 361 L 258.5 362 L 211 362 L 211 359.5 L 217.5 350 L 217 351.5 L 212 361 L 258.5 361 L 261 358.5 L 269.5 343 Z " /><path fill="rgb(209,209,208)" stroke="rgb(209,209,208)" stroke-width="1" opacity="0.1803921568627451" d="M 299.5 343 L 299 344.5 L 294.5 352 L 295 350.5 L 299.5 343 Z " /><path fill="rgb(209,209,208)" stroke="rgb(209,209,208)" stroke-width="1" opacity="0.1803921568627451" d="M 59.5 344 L 61 355.5 L 60 355.5 L 59.5 344 Z " /><path fill="rgb(209,209,208)" stroke="rgb(209,209,208)" stroke-width="1" opacity="0.1803921568627451" d="M 101.5 344 L 102 347.5 L 101 347.5 L 101.5 344 Z " /><path fill="rgb(209,209,208)" stroke="rgb(209,209,208)" stroke-width="1" opacity="0.1803921568627451" d="M 102.5 349 L 103 351.5 L 102 351.5 L 102.5 349 Z " /><path fill="rgb(209,209,208)" stroke="rgb(209,209,208)" stroke-width="1" opacity="0.1803921568627451" d="M 293.5 353 L 293 354.5 L 286.5 366 L 287 364.5 L 293.5 353 Z " /><path fill="rgb(209,209,208)" stroke="rgb(209,209,208)" stroke-width="1" opacity="0.1803921568627451" d="M 104.5 356 L 112 372.5 L 110 371.5 L 105 360.5 L 104.5 356 Z " /><path fill="rgb(209,209,208)" stroke="rgb(209,209,208)" stroke-width="1" opacity="0.1803921568627451" d="M 62.5 360 L 67 375.5 L 65 374.5 L 62 363.5 L 62.5 360 Z " /><path fill="rgb(209,209,208)" stroke="rgb(209,209,208)" stroke-width="1" opacity="0.1803921568627451" d="M 336.5 362 L 398.5 362 L 401 364.5 L 425 405.5 L 423 404.5 L 398.5 363 L 336.5 363 L 335.5 364 L 336.5 362 Z " /><path fill="rgb(209,209,208)" stroke="rgb(209,209,208)" stroke-width="1" opacity="0.1803921568627451" d="M 334.5 365 L 334 366.5 L 330.5 373 L 331 371.5 L 334.5 365 Z " /><path fill="rgb(209,209,208)" stroke="rgb(209,209,208)" stroke-width="1" opacity="0.1803921568627451" d="M 284.5 369 L 284 370.5 L 282.5 373 L 283 371.5 L 284.5 369 Z " /><path fill="rgb(209,209,208)" stroke="rgb(209,209,208)" stroke-width="1" opacity="0.1803921568627451" d="M 112.5 374 L 115 377.5 L 113 376.5 L 112.5 374 Z " /><path fill="rgb(209,209,208)" stroke="rgb(209,209,208)" stroke-width="1" opacity="0.1803921568627451" d="M 281.5 374 L 281 375.5 L 274.5 387 L 275 385.5 L 281.5 374 Z " /><path fill="rgb(209,209,208)" stroke="rgb(209,209,208)" stroke-width="1" opacity="0.1803921568627451" d="M 329.5 374 L 330 375.5 L 326.5 380 L 327 378.5 L 329.5 374 Z " /><path fill="rgb(209,209,208)" stroke="rgb(209,209,208)" stroke-width="1" opacity="0.1803921568627451" d="M 66.5 377 Q 68.8 376.3 68 378.5 L 66.5 377 Z " /><path fill="rgb(209,209,208)" stroke="rgb(209,209,208)" stroke-width="1" opacity="0.1803921568627451" d="M 115.5 379 L 121 385.5 L 117 382.5 L 115.5 379 Z " /><path fill="rgb(209,209,208)" stroke="rgb(209,209,208)" stroke-width="1" opacity="0.1803921568627451" d="M 68.5 380 L 71 385.5 L 69 384.5 L 68.5 380 Z " /><path fill="rgb(209,209,208)" stroke="rgb(209,209,208)" stroke-width="1" opacity="0.1803921568627451" d="M 325.5 381 L 325 382.5 L 319.5 392 L 320 390.5 L 325.5 381 Z " /><path fill="rgb(209,209,208)" stroke="rgb(209,209,208)" stroke-width="1" opacity="0.1803921568627451" d="M 122.5 387 L 127.5 393 Q 129.8 392.3 129 394.5 L 143 404.5 L 141.5 404 Q 129.8 398.2 122 388.5 L 122.5 387 Z " /><path fill="rgb(209,209,208)" stroke="rgb(209,209,208)" stroke-width="1" opacity="0.1803921568627451" d="M 273.5 388 L 273 389.5 L 263.5 406 L 264 404.5 L 273.5 388 Z " /><path fill="rgb(209,209,208)" stroke="rgb(209,209,208)" stroke-width="1" opacity="0.1803921568627451" d="M 74.5 393 L 78 398.5 L 76 399 L 74.5 393 Z " /><path fill="rgb(209,209,208)" stroke="rgb(209,209,208)" stroke-width="1" opacity="0.1803921568627451" d="M 318.5 393 L 319 394.5 L 316 401 Q 313.3 399.9 314 402.5 L 310.5 408 L 311 406.5 L 318.5 393 Z " /><path fill="rgb(209,209,208)" stroke="rgb(209,209,208)" stroke-width="1" opacity="0.1803921568627451" d="M 78.5 400 L 89 414.5 L 84 410.5 L 78.5 400 Z " /><path fill="rgb(209,209,208)" stroke="rgb(209,209,208)" stroke-width="1" opacity="0.1803921568627451" d="M 144.5 405 L 147 406.5 L 145.5 407 L 144.5 405 Z " /><path fill="rgb(209,209,208)" stroke="rgb(209,209,208)" stroke-width="1" opacity="0.1803921568627451" d="M 148.5 407 Q 157.1 411.4 169 412.5 L 164.5 413 L 150.5 409 L 148.5 407 Z " /><path fill="rgb(209,209,208)" stroke="rgb(209,209,208)" stroke-width="1" opacity="0.1803921568627451" d="M 262.5 407 L 262 408.5 L 258.5 414 L 174 413.5 L 258.5 413 L 260 411.5 L 262.5 407 Z " /><path fill="rgb(209,209,208)" stroke="rgb(209,209,208)" stroke-width="1" opacity="0.1803921568627451" d="M 425.5 407 L 431 415.5 L 429 416 L 425.5 407 Z " /><path fill="rgb(209,209,208)" stroke="rgb(209,209,208)" stroke-width="1" opacity="0.1803921568627451" d="M 309.5 409 L 309 410.5 L 295.5 434 L 296 432.5 L 309.5 409 Z " /><path fill="rgb(209,209,208)" stroke="rgb(209,209,208)" stroke-width="1" opacity="0.1803921568627451" d="M 90.5 417 L 105.5 433 L 98 427 L 95.5 423 Q 93.3 423.8 94 421.5 L 90.5 417 Z " /><path fill="rgb(209,209,208)" stroke="rgb(209,209,208)" stroke-width="1" opacity="0.1803921568627451" d="M 431.5 417 L 438 427.5 L 436 426.5 L 431.5 417 Z " /><path fill="rgb(209,209,208)" stroke="rgb(209,209,208)" stroke-width="1" opacity="0.1803921568627451" d="M 438.5 429 L 442 434.5 L 440 433.5 L 438.5 429 Z " /><path fill="rgb(209,209,208)" stroke="rgb(209,209,208)" stroke-width="1" opacity="0.1803921568627451" d="M 107.5 433 L 120 442.5 L 118.5 442 Q 110.5 438.9 107.5 433 Z " /><path fill="rgb(209,209,208)" stroke="rgb(209,209,208)" stroke-width="1" opacity="0.1803921568627451" d="M 294.5 435 L 295 436.5 L 290.5 443 L 291 441.5 L 294.5 435 Z " /><path fill="rgb(209,209,208)" stroke="rgb(209,209,208)" stroke-width="1" opacity="0.1803921568627451" d="M 442.5 436 L 449 446.5 L 447 445.5 L 442.5 436 Z " /><path fill="rgb(209,209,208)" stroke="rgb(209,209,208)" stroke-width="1" opacity="0.1803921568627451" d="M 121.5 443 L 125 445.5 L 123.5 445 L 121.5 443 Z " /><path fill="rgb(209,209,208)" stroke="rgb(209,209,208)" stroke-width="1" opacity="0.1803921568627451" d="M 289.5 444 L 289 445.5 L 285.5 452 L 286 450.5 L 289.5 444 Z " /><path fill="rgb(209,209,208)" stroke="rgb(209,209,208)" stroke-width="1" opacity="0.1803921568627451" d="M 128.5 447 L 131 448.5 L 129.5 449 L 128.5 447 Z " /><path fill="rgb(209,209,208)" stroke="rgb(209,209,208)" stroke-width="1" opacity="0.1803921568627451" d="M 449.5 448 L 454 454.5 L 451 452.5 L 449.5 448 Z " /><path fill="rgb(209,209,208)" stroke="rgb(209,209,208)" stroke-width="1" opacity="0.1803921568627451" d="M 132.5 449 L 139 451.5 L 136.5 452 L 132.5 450 L 132.5 449 Z " /><path fill="rgb(209,209,208)" stroke="rgb(209,209,208)" stroke-width="1" opacity="0.1803921568627451" d="M 142.5 453 L 145 453.5 L 142.5 454 L 142.5 453 Z " /><path fill="rgb(209,209,208)" stroke="rgb(209,209,208)" stroke-width="1" opacity="0.1803921568627451" d="M 284.5 453 L 284 454.5 L 281.5 459 L 171 458.5 L 280.5 458 L 283 455.5 L 284.5 453 Z " /><path fill="rgb(209,209,208)" stroke="rgb(209,209,208)" stroke-width="1" opacity="0.1803921568627451" d="M 146.5 454 L 153 455.5 L 149.5 456 L 146.5 455 L 146.5 454 Z " /><path fill="rgb(209,209,208)" stroke="rgb(209,209,208)" stroke-width="1" opacity="0.1803921568627451" d="M 154.5 456 L 167 457.5 L 158.5 458 L 154.5 457 L 154.5 456 Z " /><path fill="rgb(0,0,0)" stroke="rgb(0,0,0)" stroke-width="1" opacity="0" d="M 0 0 L 563 0 L 563 648 L 0 648 L 0 0 Z M 171 189 L 170 190 L 160 190 Q 158 193 157 191 L 135 197 L 120 205 L 105 216 Q 80 236 68 269 Q 64 270 67 272 L 65 274 L 61 290 L 62 292 L 60 292 L 59 306 L 58 307 L 59 311 L 57 322 L 58 338 L 58 340 L 59 351 L 60 352 Q 58 357 62 356 L 61 358 L 65 375 Q 68 376 66 378 L 76 398 Q 75 400 78 399 L 84 411 L 90 415 Q 89 420 94 422 Q 93 424 96 423 L 98 427 L 112 438 L 130 449 L 143 454 L 159 458 L 171 458 L 172 459 L 282 459 L 314 403 Q 313 400 316 401 L 319 393 L 330 376 L 335 365 L 337 363 L 399 363 L 429 415 Q 428 417 431 416 L 434 424 L 456 459 L 505 459 L 506 458 L 473 403 Q 474 400 471 401 L 467 392 L 447 360 L 449 360 Q 459 358 467 353 L 482 341 L 489 333 Q 488 329 491 330 L 491 327 L 493 327 Q 502 313 505 293 L 505 289 L 506 286 L 505 282 L 507 279 Q 508 274 505 273 L 506 271 Q 508 265 505 266 L 506 264 L 502 246 L 496 231 L 490 221 L 485 217 L 484 215 Q 485 212 483 213 L 481 211 Q 467 196 445 190 Q 438 192 437 189 L 309 189 L 249 295 Q 250 297 247 296 L 244 305 L 241 308 L 225 337 L 225 339 L 224 339 L 211 360 L 211 362 L 259 362 L 261 361 L 270 344 Q 269 341 272 342 L 286 316 Q 285 313 288 314 L 291 306 L 294 303 L 302 287 L 305 284 L 306 280 L 309 277 L 309 275 L 333 235 L 433 235 L 434 236 L 437 235 L 437 237 Q 450 239 456 249 Q 455 252 458 251 L 463 265 Q 461 270 465 269 L 464 271 L 465 274 L 464 279 L 465 283 L 463 283 L 463 289 L 460 298 L 455 305 Q 449 313 438 316 Q 431 314 432 318 L 430 317 L 313 317 L 300 343 L 297 346 L 285 369 L 259 413 L 170 413 L 148 407 L 129 395 Q 130 392 128 393 L 125 390 Q 123 385 122 388 L 112 374 L 104 356 L 101 344 L 100 332 L 100 330 L 100 319 L 99 318 L 104 293 L 115 270 L 121 263 Q 120 259 124 260 L 128 255 Q 130 256 129 254 Q 141 242 160 237 Q 166 238 165 236 L 167 236 L 171 235 L 253 235 L 278 192 L 278 189 L 171 189 Z " /><path fill="rgb(4,4,4)" stroke="rgb(4,4,4)" stroke-width="1" opacity="0.9921568627450981" d="M 167.5 190 L 276.5 190 L 277 191.5 L 253 234 L 247.5 235 L 246.5 234 L 235.5 234 L 230.5 235 L 229.5 234 L 217.5 234 L 215.5 234 L 191.5 234 L 189.5 235 L 186.5 234 L 164.5 235 L 150.5 239 Q 132.7 246.7 121 260.5 Q 108.2 275.2 102 296.5 L 99 312.5 L 99 335.5 L 102 351.5 L 110 371.5 Q 118.1 386.4 130.5 397 Q 143.5 409 164.5 413 L 173.5 413 L 174.5 414 L 258.5 414 L 314.5 318 L 433.5 318 Q 449.3 314.8 457 303.5 L 462 294.5 L 465 283.5 L 465 269.5 L 460 253.5 L 449.5 241 L 440.5 236 L 430.5 234 L 332.5 234 L 258.5 361 L 212.5 361 L 212 359.5 L 310.5 190 L 438.5 190 L 448.5 192 L 461.5 197 Q 476 205 486 217.5 L 496 233.5 L 502 250.5 L 504 260.5 L 504 268.5 L 505 269.5 L 505 283.5 L 504 284.5 L 503 297.5 L 499 311.5 Q 490.8 331.8 475.5 345 L 462.5 354 L 446 360.5 L 502 452.5 L 504 458 L 456.5 458 L 454 455.5 L 416 389.5 L 398.5 362 L 336.5 362 L 335 363.5 L 285 452.5 L 280.5 458 L 167.5 458 L 166.5 457 L 153.5 456 Q 112.4 445.6 90 416.5 Q 72.7 396.3 64 367.5 L 59 343.5 L 58 314.5 L 59 313.5 L 60 297.5 L 64 280.5 L 73 257.5 Q 85.3 233.8 104.5 217 Q 116.8 206.3 132.5 199 L 149.5 193 L 166.5 191 L 167.5 190 Z " /></svg>