<svg width="179" height="203" viewBox="0 0 179 203" fill="none" xmlns="http://www.w3.org/2000/svg">
  <rect width="100" height="100" rx="13" transform="matrix(0.866025 -0.5 2.20305e-08 1 92 103)" fill="#4B5563" />
  <rect width="100" height="100" rx="13" transform="matrix(0.866025 0.5 -0.866025 0.5 88.6025 -3)" fill="#1F2937" />
  <rect width="100" height="100" rx="13" transform="matrix(0.866025 0.5 -2.20305e-08 1 0.000152588 53)" fill="#111827" />
  <rect width="72.7816" height="72.7816" rx="13" transform="matrix(0.866025 0.5 -2.20305e-08 1 11 73)" fill="#374151" />
  <rect width="28.1436" height="28.1436" rx="3" transform="matrix(0.866025 0.5 -2.20305e-08 1 11.0002 86)" fill="#E5E7EB" fillOpacity="0.9" />
  <rect width="28.1436" height="28.1436" rx="3" transform="matrix(0.866025 0.5 -2.20305e-08 1 50.0001 107)" fill="#E5E7EB" fillOpacity="0.9" />
  <rect width="13.8564" height="13.8564" rx="3" transform="matrix(0.866025 0.5 -2.20305e-08 1 43.0001 148)" fill="#E5E7EB" fillOpacity="0.9" />
</svg>
