<svg width="200" height="200" viewBox="0 0 160 168" fill="none" xmlns="http://www.w3.org/2000/svg">
  <path d="M12.3027 68.5326C12.3027 76.0702 13.8104 83.534 16.7396 90.4978C19.6689 97.4617 23.9623 103.789 29.3749 109.119C34.7874 114.449 41.213 118.677 48.2848 121.561C55.3567 124.446 62.9362 125.93 70.5907 125.93C78.2451 125.93 85.8247 124.446 92.8965 121.561C99.9683 118.677 106.394 114.449 111.806 109.119C117.219 103.789 121.512 97.4617 124.442 90.4978C127.371 83.534 128.879 76.0702 128.879 68.5326C128.879 60.995 127.371 53.5312 124.442 46.5674C121.512 39.6036 117.219 33.2761 111.806 27.9462C106.394 22.6163 99.9683 18.3884 92.8965 15.5039C85.8247 12.6194 78.2451 11.1348 70.5907 11.1348C62.9362 11.1348 55.3567 12.6194 48.2848 15.5039C41.213 18.3884 34.7874 22.6163 29.3749 27.9462C23.9623 33.2761 19.6689 39.6036 16.7396 46.5674C13.8104 53.5312 12.3027 60.995 12.3027 68.5326Z" fill="#F9DA3C"/>
  <path d="M21.1572 37.0684C39.4999 11.1724 63.3411 2.55958 83.2979 4.96484C102.259 7.25086 117.938 19.6579 120.65 36.459C120.929 36.5519 121.229 36.656 121.547 36.7734C123.228 37.3962 125.482 38.417 127.618 40.001C129.758 41.5881 131.885 43.8212 133.107 46.8779C134.348 49.9826 134.546 53.6657 133.258 57.9121C132.437 60.6201 132.995 62.347 134.216 63.873C135.642 65.6567 138.025 67.2154 141.144 69.0488C141.532 69.2768 141.922 69.5041 142.312 69.7305C144.984 71.2852 148.007 73.0438 150.495 75.1836C153.439 77.7153 155.939 81.0232 156.501 85.5986C157.136 90.7682 156.531 94.8379 155.056 98.0859C153.578 101.339 151.341 103.51 149.152 105.066C147.664 106.125 145.983 107.021 144.732 107.688C144.274 107.932 143.873 108.145 143.561 108.324C143.046 108.62 142.738 108.832 142.559 108.978C142.571 109.471 142.6 110.081 142.635 110.782C142.758 113.325 142.942 117.076 142.537 120.906C142.171 124.37 141.018 127.113 138.972 129.326C137.005 131.454 134.405 132.877 131.579 134.099C128.739 135.327 125.585 135.43 122.68 135.069C119.749 134.706 116.832 133.841 114.297 132.891C111.75 131.936 109.502 130.863 107.896 130.032C107.615 129.887 107.353 129.748 107.111 129.618C97.2577 137.65 91.91 143.235 87.6299 150.193C86.1069 152.669 84.7007 155.35 83.2725 158.419L80.3477 164.706L77.7725 158.269L77.7715 158.267L77.7666 158.254L77.7451 158.2L77.6523 157.974C77.569 157.773 77.4448 157.473 77.2812 157.09C76.8222 156.019 76.3464 154.955 75.8555 153.898C74.6232 151.243 72.8756 147.723 70.8018 144.222C68.7136 140.696 66.3662 137.312 63.958 134.847C61.4527 132.283 59.3871 131.23 57.8623 131.23C55.8059 131.23 53.1869 130.389 50.5078 129.182C47.7189 127.925 44.4965 126.103 41.1221 123.789C34.3774 119.166 26.8442 112.46 20.8008 104.093C14.7537 95.7207 10.1238 85.5778 9.40332 74.1357C8.67929 62.6458 11.9162 50.1148 21.1572 37.0684ZM82.5801 10.916C65.0323 8.80097 43.2555 16.2395 26.0488 40.5332C17.5156 52.5805 14.7564 63.7755 15.3857 73.7598C16.0169 83.7921 20.0886 92.8712 25.6592 100.584C31.2333 108.301 38.2351 114.543 44.5117 118.847C45.5639 119.569 46.6358 120.261 47.7266 120.924C42.6242 114.059 39.1741 107.001 37.7236 98.458C35.6391 86.1739 37.76 71.2203 44.1367 49.8779L49.8799 51.5938C43.5697 72.7127 41.7855 86.5734 43.6328 97.4551C45.4028 107.884 50.5747 115.951 59.2607 125.339C62.7221 125.842 65.7793 128.136 68.2451 130.659C71.1347 133.617 73.7647 137.463 75.959 141.168C77.8584 144.375 79.4854 147.568 80.7207 150.16C81.2101 149.267 81.718 148.384 82.2441 147.513C82.6673 145.477 83.2489 143.232 83.832 140.98C84.1584 139.733 84.4759 138.483 84.7852 137.23C85.7022 133.474 86.4395 129.782 86.5498 126.346C86.6594 122.92 86.138 119.96 84.7266 117.527C83.345 115.147 80.9333 112.966 76.6699 111.39C70.849 109.237 67.0648 104.564 64.9844 98.8682C62.9202 93.2173 62.4605 86.4165 63.2637 79.4717C64.864 65.6329 71.5968 50.3044 82.4189 40.9092C84.7979 38.8443 85.8222 37.3362 86.1758 36.4102C86.4363 35.7276 86.2876 35.5686 86.2334 35.5107C86.2297 35.5068 86.2262 35.5021 86.2227 35.498C86.0063 35.2343 85.3444 34.7561 83.9014 34.4229C82.5277 34.1064 80.7695 34.0003 78.8379 34.165C74.8996 34.4995 70.9044 35.8924 68.5039 38.0068C67.3441 39.0282 66.6452 40.134 66.373 41.3027C66.1057 42.4517 66.1805 43.9569 67.085 45.9258L61.6377 48.4277C60.2789 45.468 59.9154 42.6018 60.5352 39.9424C61.1501 37.3022 62.6648 35.163 64.542 33.5088C68.2161 30.2735 73.5954 28.5952 78.3291 28.1924C80.7337 27.988 83.1365 28.0958 85.248 28.583C87.2895 29.0535 89.4376 29.9701 90.8545 31.6963C92.4493 33.6381 92.7114 36.0976 91.7754 38.5488C90.9105 40.8126 89.0403 43.098 86.3486 45.4355C76.8887 53.6482 70.6844 67.4732 69.2178 80.1602C68.4871 86.4787 68.9606 92.2845 70.6143 96.8115C72.2518 101.294 74.97 104.37 78.749 105.768C84.0863 107.741 87.7135 110.734 89.9102 114.519C92.0762 118.252 92.6722 122.447 92.541 126.538C92.4415 129.643 91.9185 132.809 91.2598 135.841C94.6432 132.317 98.701 128.722 103.811 124.577V104.574H109.805V124.262C110.085 124.413 110.367 124.563 110.65 124.709C112.112 125.465 114.136 126.43 116.4 127.278C118.677 128.131 121.114 128.836 123.418 129.122C125.746 129.411 127.707 129.244 129.2 128.599C131.788 127.48 133.462 126.457 134.57 125.258C135.6 124.144 136.323 122.678 136.576 120.277C136.929 116.937 136.789 114.121 136.667 111.68C136.611 110.574 136.561 109.545 136.561 108.579C136.561 107.005 137.281 105.799 138.094 104.954C138.844 104.175 139.781 103.584 140.574 103.129C141.153 102.799 141.737 102.481 142.327 102.172C143.447 101.577 144.515 101.01 145.679 100.183C147.274 99.048 148.676 97.6365 149.599 95.6064C150.524 93.5698 151.083 90.6545 150.553 86.3301C150.233 83.7276 148.843 81.6687 146.587 79.7285C144.55 77.9772 142.056 76.5228 139.338 74.9375C138.932 74.7008 138.522 74.4607 138.106 74.2168C135.104 72.4517 131.754 70.391 129.535 67.6172C127.111 64.5856 126.114 60.8156 127.522 56.1729C128.463 53.0701 128.219 50.7979 127.542 49.1035C126.846 47.3629 125.58 45.9522 124.048 44.8164C122.512 43.6778 120.815 42.895 119.464 42.3945C118.797 42.1476 118.235 41.9768 117.851 41.8701C117.658 41.8174 117.512 41.78 117.42 41.7578L117.343 41.7393L117.324 41.7354L117.317 41.7344L117.313 41.7324H117.309L115.159 41.2812L114.948 39.0879C113.574 24.821 100.358 13.0594 82.5801 10.916ZM95.9863 63.6895C92.3847 57.1988 109.133 55.4865 114.706 60.3906C120.837 65.7858 116.166 87.1661 110.872 80.9482C107.588 77.0913 111.552 72.0945 108.263 68.2412C104.943 64.352 98.4667 68.1602 95.9863 63.6895Z" fill="#111111"/>
</svg>
