<?xml version="1.0" encoding="UTF-8"?>
<svg id="_图层_2" data-name="图层 2" xmlns="http://www.w3.org/2000/svg" viewBox="0 0 241.39 240.6">
  <defs>
    <style>
      .cls-1 {
        fill: #068cde;
      }

      .cls-2 {
        fill: #fff;
      }

      .cls-3 {
        fill: #02a6ff;
      }
    </style>
  </defs>
  <g id="_图层_1-2" data-name="图层 1">
    <path class="cls-1" d="M226.14,157.63c-3.62,0-7.24,0-10.95,0v-24.96c5.2,0,10.17,0,15.13,0,5.55-.01,8.52-4.01,10.18-8.16,1.34-3.37,1.36-7.51-1.34-11.1-3.16-4.2-7.23-5.72-12.25-5.63-3.87.07-7.74.01-11.66.01v-24.79c6.56-.43,12.93.45,19.3-1.13.4-.42.85-1.05,1.44-1.49,4.61-3.47,6.48-9.22,4.67-14.51-1.63-4.76-6.67-8.03-12.22-7.99-4.37.03-8.74,0-13.42,0,0-5.79.1-11.16-.04-16.54-.08-3.23-1.09-6.23-3.22-8.79-7.6-9.17-17.84-6.02-28.13-6.29-.39-.23-.63-1.14-.45-2.35.73-4.72.37-9.44-.24-14.13-.51-3.95-5.79-9.24-9.1-9.56-10.42-1-15.88,5.21-15.83,14.89.02,3.54,0,7.08,0,10.92h-24.44c-.76-1.03-.45-2.13-.42-3.19.15-5.2.71-10.35-1.11-15.5-2.15-6.08-11.68-9.27-17.05-5.79-5.27,3.41-7.22,7.95-6.99,13.99.14,3.56.53,7.22-.44,10.6h-23.98c-.22-.38-.37-.51-.37-.66-.05-4.56,0-9.12-.14-13.68-.15-5.18-4.72-10.76-9.31-11.57-8.81-1.55-15.64,4.23-15.64,13.24,0,4.11,0,8.21,0,12.61-4.92,0-9.32.08-13.72-.02-10.41-.22-18.81,7.79-17.84,18.57.39,4.32.06,8.7.06,13.34-5.17,0-9.9-.05-14.63.01-5.36.07-11.08,5.57-11.83,10.1-1.39,8.44,6.23,15.25,14.55,14.78,3.86-.22,7.74-.04,11.75-.04v24.92c-4.45,0-8.67-.07-12.89.02-3.2.07-6.5.62-8.75,2.93-3.6,3.69-6.1,8.11-4.12,13.5,2.13,5.8,6.42,8.43,12.98,8.43,4.21,0,8.42,0,12.83,0v24.95c-3.48,0-6.79-.12-10.08.03-3.74.18-7.43.36-10.78,2.69-4.11,2.87-6.48,8.21-5.32,12.83,1.1,4.36,7.17,9.83,11.59,9.41,4.82-.46,9.72-.1,14.69-.1,0,5.18.51,9.88-.1,14.44-1.36,10,8.64,18.06,17.22,17.5,4.62-.3,9.28-.05,14.15-.05,1.26,9.11-3.28,19.95,9.5,25.9,10.27,1.43,15.74-3.33,15.75-15.14,0-3.45,0-6.9,0-10.55h24.94c0,3.39,0,6.6,0,9.8,0,3.81.26,7.41,2.73,10.76,3.09,4.2,8.64,6.68,14,4.87,3.62-1.22,8.31-5.43,8.3-10.7,0-4.85,0-9.7,0-14.7h24.92c0,3.98-.14,7.7.03,11.41.22,4.83,1.4,9.35,5.68,12.32,5.16,3.59,12.81,2.96,17.28-2.41,3.93-7.43,2.05-14.57,2.39-21.58,5.71,0,11.1.03,16.49-.02,1.98-.02,4.05-.06,5.8-1.09,6.78-3.99,9.8-9.94,9.36-17.81-.23-4.18-.04-8.39-.04-12.56,8.59-1.68,18.23,2.96,24.73-6.3.08-.31.31-1.1.5-1.9.97-4.19,1.82-8.06-1.59-12.01-3.49-4.05-7.66-5.05-12.52-5.04ZM168.3,160.54c0,3.41-1.48,4.58-4.69,4.49-4.41-.12-8.82-.09-13.23-.05-3.15.03-4.43-1.39-4.41-4.56.06-16.85.02-33.69-.03-50.54,0-.99.44-2.13-.73-3.15-4.49,13.97-8.94,27.8-13.44,41.79h-21.8c-4.39-13.78-8.8-27.62-13.55-42.54-.15,1.94-.29,2.89-.29,3.84-.01,16.68-.08,33.36.04,50.04.03,3.7-1.18,5.38-5.05,5.16-5.51-.31-11.08.38-16.22-.44-1.24-1.59-1.21-2.95-1.21-4.26.07-27.3.18-54.6.22-81.9,0-2.16.89-3.46,2.97-3.48,9.9-.06,19.8,0,29.7.05.31,0,.63.19,1.39.44,4.22,14.29,8.51,28.79,12.8,43.3.29.05.58.1.87.15,4.53-14.59,9.07-29.17,13.66-43.95,10.35,0,20.48-.03,30.62.03,1.76.01,2.38,1.37,2.42,2.92.08,2.57.1,5.14.1,7.71-.06,24.98-.16,49.95-.15,74.93Z"/>
    <rect class="cls-3" x="48.86" y="48.46" width="143.67" height="143.67" rx="10.57" ry="10.57"/>
    <path class="cls-2" d="M165.55,75.28c-10.14-.06-20.27-.03-30.62-.03-4.59,14.78-9.12,29.36-13.66,43.95-.29-.05-.58-.1-.87-.15-4.29-14.51-8.58-29.01-12.8-43.3-.77-.25-1.08-.44-1.39-.44-9.9-.04-19.8-.1-29.7-.05-2.08.01-2.96,1.32-2.97,3.48-.04,27.3-.15,54.6-.22,81.9,0,1.31-.03,2.67,1.21,4.26,5.13.82,10.7.13,16.22.44,3.87.22,5.07-1.46,5.05-5.16-.12-16.68-.06-33.36-.04-50.04,0-.95.14-1.9.29-3.84,4.75,14.91,9.16,28.76,13.55,42.54h21.8c4.5-13.99,8.94-27.82,13.44-41.79,1.18,1.01.73,2.16.73,3.15.04,16.85.09,33.69.03,50.54-.01,3.17,1.26,4.59,4.41,4.56,4.41-.04,8.82-.07,13.23.05,3.21.09,4.69-1.08,4.69-4.49-.01-24.98.09-49.95.15-74.93,0-2.57-.02-5.14-.1-7.71-.05-1.55-.67-2.91-2.42-2.92Z"/>
  </g>
</svg>