<svg height="1em" style="flex:none;line-height:1" viewBox="0 0 145.55 113.29" width="1em" xmlns="http://www.w3.org/2000/svg"><title>PackyCode</title><path fill="currentColor" stroke="currentColor" stroke-miterlimit="10" d="M144.68,38.49l-.06-.23c-.88-3.28-2.5-5.94-4.58-8.06.14,5.65-2.96,11.02-6.22,16.66l-.39.68c-2.26,3.91-4.66,7.94-6.57,11.1l-.86,1.38c-3.36,5.44-6.27,10.14-12.18,14.18-8.34,5.87-18.2,5.81-26.92,5.76-2.81-.02-5.48-.03-7.95.14l-.35.02c-3.22.06-5.96,1.57-8.17,4.49l-.14.18c-.86,1.06-1.7,2.26-2.58,3.54-3.43,4.92-7.69,11.04-16.17,12.42-4.37.86-9.98.84-14.94.83h-1.95c-.52,0-1.06,0-1.61,0-6.95,0-16.08-.89-21.94-6.55-.15-.15-.3-.3-.44-.45.5,4.73,2.33,8.64,5.44,11.65,5.86,5.66,14.98,6.55,21.94,6.55.55,0,1.09,0,1.61-.01h1.93c4.96.02,10.58.04,14.96-.83,8.48-1.37,12.74-7.5,16.17-12.42.88-1.27,1.72-2.48,2.58-3.54l.14-.18c2.21-2.92,4.95-4.43,8.17-4.49l.35-.02c2.47-.17,5.13-.16,7.95-.14,8.72.05,18.58.11,26.91-5.76,5.92-4.03,8.82-8.73,12.19-14.17l.86-1.39c1.91-3.15,4.3-7.18,6.57-11.09l.39-.69c3.81-6.6,7.41-12.84,5.86-19.57ZM120.9,23.02c-.28,0-.56,0-.83,0-9.68-.19-24.03-.09-35.57-.01l-2.04.02c-.93.01-1.82.02-2.67.03-8.36.08-14.4.13-23.33,3.82l-.27.12c-10.76,4.68-16.91,12.16-22.83,21.95-5.53,8.76-12.62,20.57-16.32,26.79-.41.69-.77,1.3-1.09,1.84l-.49.84c-1.49,2.53-3.23,5.49-4.21,8.95,3.98,1.9,8.52,2.65,12.71,2.91.27-.77.64-1.56,1.07-2.38.48-.94,1.05-1.9,1.63-2.89l.49-.84c.96-1.62,2.38-3.99,4.05-6.78,3.82-6.36,8.98-14.88,13.19-21.55l.07-.11c5.02-8.31,9.2-13.45,16.91-16.81l.11-.05c6.57-2.7,10.54-2.74,18.43-2.81.87-.01,1.78-.02,2.69-.03l1.99-.02c9.17-.06,20.13-.14,29.01-.07,2.26.01,4.39.04,6.32.08h.12s.11,0,.11,0c1.25-.01,2.91.11,4.61.46,1.03.22,2.08.52,3.05.93.21-.35.41-.71.62-1.06l.39-.68c1.92-3.33,3.79-6.57,4.97-9.82-4.08-1.92-8.7-2.76-12.89-2.82Z"/><path fill="currentColor" stroke="currentColor" stroke-miterlimit="10" d="M115.07,11.81c-9.7-.19-24.07-.09-35.62-.01h-1.99c-.93.03-1.82.04-2.67.04-8.36.08-14.4.14-23.33,3.83l-.27.12c-10.76,4.67-16.91,12.16-22.83,21.95-6.13,9.71-14.19,23.21-17.41,28.63l-.5.84c-2.08,3.55-4.68,7.97-4.94,13.39v.2s0,.21,0,.21c.01.81.06,1.61.15,2.38.14.15.29.3.44.45,1.53,1.47,3.28,2.63,5.15,3.52,3.98,1.9,8.52,2.65,12.71,2.91,1.41.09,2.78.12,4.08.12.55,0,1.09-.01,1.61-.01h1.95c4.95.01,10.57.03,14.94-.83,8.48-1.38,12.74-7.5,16.17-12.42.88-1.28,1.72-2.48,2.58-3.54l.14-.18c2.21-2.92,4.95-4.44,8.17-4.49l.35-.02c2.47-.17,5.14-.16,7.95-.14,8.71.05,18.58.1,26.92-5.76,5.91-4.04,8.82-8.74,12.18-14.18l.86-1.39c1.74-2.86,3.87-6.45,5.95-10.03.21-.35.41-.71.62-1.06l.39-.68c1.92-3.33,3.79-6.57,4.97-9.82.82-2.26,1.31-4.53,1.25-6.84-5.18-5.29-13.22-7.25-19.97-7.19ZM122.56,40.37l-.39.67c-2.21,3.81-4.55,7.77-6.39,10.79l-.84,1.36c-3.01,4.87-4.83,7.81-8.48,10.29l-.1.07c-4.94,3.49-11.95,3.45-19.38,3.41-2.88-.02-5.87-.04-8.79.16-7.1.19-13.51,3.58-18.07,9.57-1.13,1.4-2.12,2.83-3.08,4.21-2.92,4.18-4.71,6.57-7.64,7.02l-.31.06c-3.09.63-8.28.61-12.45.6h-2.16c-3.85.07-7.01-.16-9.45-.69-2.24-.48-3.87-1.22-4.89-2.2-.66-.64-1.54-1.81-1.63-4.65.11-1.35.71-2.82,1.52-4.35.48-.94,1.05-1.9,1.63-2.89l.49-.84c3.17-5.33,11.19-18.75,17.24-28.33l.07-.11c5.02-8.32,9.2-13.45,16.92-16.81l.1-.05c6.57-2.7,10.54-2.74,18.43-2.82.87,0,1.78,0,2.69-.03h1.94c11.52-.09,25.86-.19,35.38,0h.23c1.25-.01,2.92.11,4.61.46,3.15.66,6.4,2.12,7.27,5.02.2,1.2-.89,3.62-2.27,6.18-.7,1.31-1.48,2.65-2.2,3.9ZM120.07,23.01c-9.68-.19-24.03-.09-35.57-.01l-2.04.02c-.93.01-1.82.02-2.67.03-8.36.08-14.4.13-23.33,3.82l-.27.12c-10.76,4.68-16.91,12.16-22.83,21.95-5.53,8.76-12.62,20.57-16.32,26.79-.78-.35-1.41-.77-1.9-1.24-.66-.64-1.54-1.81-1.63-4.65.18-2.18,1.62-4.64,3.15-7.25l.49-.83c3.17-5.32,11.18-18.73,17.24-28.33l.07-.12c5.02-8.31,9.2-13.45,16.92-16.81l.1-.04c6.57-2.7,10.54-2.74,18.43-2.82.87-.01,1.78-.01,2.69-.03h1.99c11.5-.09,25.82-.19,35.33,0h.23c3.57-.04,10.55,1.02,11.88,5.48.14.84-.35,2.27-1.13,3.93-.28,0-.56,0-.83,0Z"/><path fill="currentColor" stroke="currentColor" stroke-miterlimit="10" d="M134.68,16.09l-.06-.23c-3.07-11.45-15.08-15.33-24.55-15.25-9.68-.19-24.03-.09-35.57-.01h-2.04c-.93.03-1.82.04-2.67.04-8.36.08-14.4.14-23.33,3.83l-.27.12c-10.76,4.67-16.91,12.16-22.83,21.95-6.14,9.73-14.2,23.22-17.41,28.62l-.49.85c-2.09,3.55-4.69,7.96-4.95,13.39v.2s0,.21,0,.21c.09,5.57,1.82,10.13,5.15,13.58.14.15.29.3.44.45,1.53,1.47,3.28,2.63,5.15,3.52,3.98,1.9,8.52,2.65,12.71,2.91,1.41.09,2.78.12,4.08.12.55,0,1.09-.01,1.61-.01h1.95c4.95.01,10.57.03,14.94-.83,8.48-1.38,12.74-7.5,16.17-12.42.88-1.28,1.72-2.48,2.58-3.54l.14-.18c2.21-2.92,4.95-4.44,8.17-4.49l.35-.02c2.47-.17,5.14-.16,7.95-.14,8.71.05,18.58.1,26.92-5.76,5.91-4.04,8.82-8.74,12.18-14.18l.86-1.39c1.74-2.86,3.87-6.45,5.95-10.03.21-.35.41-.71.62-1.06l.39-.68c1.92-3.33,3.79-6.57,4.97-9.82.82-2.26,1.31-4.53,1.25-6.84-.02-.96-.14-1.93-.36-2.91ZM119.76,25.27c-.7,1.31-1.48,2.65-2.2,3.9l-.39.67c-1.19,2.04-2.41,4.13-3.57,6.09-1.01,1.7-1.97,3.31-2.82,4.7l-.84,1.36c-3.01,4.87-4.83,7.81-8.48,10.29l-.1.07c-4.94,3.49-11.96,3.45-19.38,3.41-2.89-.02-5.87-.04-8.79.16-7.1.18-13.51,3.58-18.07,9.57-1.13,1.4-2.12,2.83-3.08,4.21-2.92,4.18-4.71,6.57-7.64,7.02l-.31.06c-3.09.63-8.27.61-12.45.6h-2.16c-3.85.07-7.01-.16-9.45-.69-1.16-.25-2.16-.57-2.99-.96-.78-.35-1.41-.77-1.9-1.24-.66-.64-1.54-1.81-1.63-4.65.18-2.18,1.62-4.64,3.15-7.25l.49-.83c3.17-5.32,11.18-18.73,17.24-28.33l.07-.12c5.02-8.31,9.2-13.45,16.92-16.81l.1-.04c6.57-2.7,10.54-2.74,18.43-2.82.87-.01,1.78-.01,2.69-.03h1.99c11.5-.09,25.82-.19,35.33,0h.23c3.57-.04,10.55,1.02,11.88,5.48.14.84-.35,2.27-1.13,3.93-.34.72-.73,1.48-1.14,2.25Z"/></svg>