<svg xmlns="http://www.w3.org/2000/svg" width="128" height="128" viewBox="0 0 128 128"><path fill="#EA6C2C" fill-rule="evenodd" d="M 67.00 124.35 L 65.00 124.65 L 63.00 124.31 L 60.87 122.00 L 60.51 120.00 L 60.62 119.00 L 61.63 117.00 L 63.64 115.00 L 63.65 23.00 L 63.40 22.00 L 60.71 20.00 L 59.73 18.00 L 59.66 16.00 L 61.18 13.00 L 63.00 11.70 L 65.00 11.36 L 67.00 11.68 L 69.00 13.07 L 70.24 15.00 L 70.43 17.00 L 69.35 20.00 L 66.75 22.00 L 66.53 23.00 L 66.56 115.00 L 69.38 118.00 L 69.69 120.00 L 69.38 122.00 L 67.00 124.35 Z M 65.38 19.00 L 66.99 18.00 L 67.30 16.00 L 66.00 14.66 L 64.00 14.69 L 62.79 16.00 L 62.66 17.00 L 64.00 18.73 L 65.38 19.00 Z M 72.00 53.03 L 71.70 52.00 L 71.56 35.00 L 70.00 33.71 L 68.79 32.00 L 68.52 30.00 L 69.00 28.15 L 70.00 26.71 L 72.00 25.59 L 74.00 25.45 L 75.00 25.70 L 76.75 27.00 L 77.50 28.00 L 78.15 30.00 L 77.18 33.00 L 74.81 35.00 L 74.60 50.00 L 72.00 53.03 Z M 74.12 32.00 L 75.11 31.00 L 75.31 30.00 L 74.77 29.00 L 74.00 28.40 L 72.00 28.65 L 71.35 30.00 L 71.45 31.00 L 73.00 32.26 L 74.12 32.00 Z M 58.00 52.97 L 55.68 50.00 L 55.65 40.00 L 52.89 37.00 L 52.36 35.00 L 52.62 33.00 L 54.00 31.03 L 57.00 29.77 L 60.00 30.84 L 61.03 32.00 L 61.64 34.00 L 61.21 37.00 L 58.49 40.00 L 58.47 52.00 L 58.00 52.97 Z M 58.43 36.00 L 59.06 35.00 L 58.91 34.00 L 58.00 32.96 L 57.00 32.66 L 56.00 33.10 L 55.29 34.00 L 55.19 35.00 L 55.64 36.00 L 57.00 36.59 L 58.43 36.00 Z M 57.00 89.45 L 46.00 89.35 L 37.24 77.00 L 36.00 75.99 L 35.00 75.93 L 28.00 75.93 L 27.12 77.00 L 27.14 88.00 L 26.80 89.00 L 26.00 89.36 L 18.00 89.36 L 16.89 89.00 L 16.66 48.00 L 17.00 46.90 L 44.00 46.73 L 48.00 47.67 L 50.00 48.57 L 53.23 51.00 L 55.44 54.00 L 56.34 56.00 L 57.07 59.00 L 56.95 64.00 L 56.15 67.00 L 54.34 70.00 L 52.00 72.26 L 48.83 74.00 L 48.06 75.00 L 57.06 88.00 L 57.53 89.00 L 57.00 89.45 Z M 110.00 89.13 L 109.00 89.65 L 90.00 89.61 L 85.00 89.18 L 80.00 87.40 L 77.00 85.39 L 74.64 83.00 L 72.64 80.00 L 70.76 75.00 L 70.20 70.00 L 70.36 65.00 L 70.81 62.00 L 72.61 57.00 L 74.49 54.00 L 77.36 51.00 L 81.00 48.62 L 84.00 47.54 L 88.00 46.77 L 109.00 46.64 L 109.79 47.00 L 110.13 48.00 L 110.00 55.15 L 109.00 55.68 L 91.00 55.74 L 87.00 56.77 L 84.11 59.00 L 82.59 61.00 L 81.36 64.00 L 80.64 69.00 L 81.62 74.00 L 82.58 76.00 L 85.00 78.66 L 88.00 80.22 L 92.00 80.64 L 109.00 80.64 L 109.80 81.00 L 110.13 82.00 L 110.00 89.13 Z M 43.29 67.00 L 44.89 66.00 L 46.00 64.70 L 46.86 62.00 L 46.50 59.00 L 45.00 56.77 L 43.00 55.56 L 40.00 55.18 L 28.00 55.17 L 27.12 56.00 L 27.16 67.00 L 28.00 67.65 L 40.00 67.63 L 43.29 67.00 Z M 74.00 105.20 L 72.00 105.09 L 70.13 104.00 L 68.71 102.00 L 68.54 101.00 L 68.69 99.00 L 70.00 97.06 L 71.42 96.00 L 71.71 95.00 L 71.70 86.00 L 72.00 84.36 L 74.56 87.00 L 74.64 95.00 L 75.00 95.97 L 77.39 98.00 L 78.12 100.00 L 77.32 103.00 L 76.00 104.37 L 74.00 105.20 Z M 59.00 111.05 L 57.00 111.40 L 55.00 111.01 L 52.89 109.00 L 52.36 107.00 L 53.00 104.45 L 55.51 102.00 L 55.65 93.00 L 55.88 92.00 L 57.00 91.64 L 58.28 92.00 L 58.49 93.00 L 58.63 102.00 L 61.00 104.14 L 61.65 106.00 L 61.26 109.00 L 59.00 111.05 Z M 74.39 102.00 L 75.23 101.00 L 75.00 99.65 L 74.00 98.65 L 73.00 98.54 L 72.06 99.00 L 71.39 100.00 L 71.39 101.00 L 72.00 101.96 L 73.00 102.38 L 74.39 102.00 Z M 58.51 108.00 L 59.09 107.00 L 58.83 106.00 L 58.00 105.18 L 57.00 104.85 L 55.33 106.00 L 55.18 107.00 L 56.00 108.39 L 57.00 108.65 L 58.51 108.00 Z M 65.09 122.00 L 66.75 121.00 L 67.14 120.00 L 66.00 118.36 L 65.00 118.16 L 63.54 119.00 L 63.28 120.00 L 63.47 121.00 L 65.09 122.00 Z"/></svg>