<?xml version="1.0" encoding="UTF-8"?>
<svg id="_图层_2" data-name="图层 2" xmlns="http://www.w3.org/2000/svg" viewBox="0 0 1075.78 240.6">
  <defs>
    <style>
      .cls-1 {
        fill: #068cde;
      }

      .cls-2 {
        fill: #02a4fd;
      }

      .cls-3 {
        fill: #fff;
      }

      .cls-4 {
        fill: #02a6ff;
      }
    </style>
  </defs>
  <g id="_图层_1-2" data-name="图层 1">
    <path class="cls-1" d="M226.14,157.63c-3.62,0-7.24,0-10.95,0v-24.96c5.2,0,10.17,0,15.13,0,5.55-.01,8.52-4.01,10.18-8.16,1.34-3.37,1.36-7.51-1.34-11.1-3.16-4.2-7.23-5.72-12.25-5.63-3.87.07-7.74.01-11.66.01v-24.79c6.56-.43,12.93.45,19.3-1.13.4-.42.85-1.05,1.44-1.49,4.61-3.47,6.48-9.22,4.67-14.51-1.63-4.76-6.67-8.03-12.22-7.99-4.37.03-8.74,0-13.42,0,0-5.79.1-11.16-.04-16.54-.08-3.23-1.09-6.23-3.22-8.79-7.6-9.17-17.84-6.02-28.13-6.29-.39-.23-.63-1.14-.45-2.35.73-4.72.37-9.44-.24-14.13-.51-3.95-5.79-9.24-9.1-9.56-10.42-1-15.88,5.21-15.83,14.89.02,3.54,0,7.08,0,10.92h-24.44c-.76-1.03-.45-2.13-.42-3.19.15-5.2.71-10.35-1.11-15.5-2.15-6.08-11.68-9.27-17.05-5.79-5.27,3.41-7.22,7.95-6.99,13.99.14,3.56.53,7.22-.44,10.6h-23.98c-.22-.38-.37-.51-.37-.66-.05-4.56,0-9.12-.14-13.68-.15-5.18-4.72-10.76-9.31-11.57-8.81-1.55-15.64,4.23-15.64,13.24,0,4.11,0,8.21,0,12.61-4.92,0-9.32.08-13.72-.02-10.41-.22-18.81,7.79-17.84,18.57.39,4.32.06,8.7.06,13.34-5.17,0-9.9-.05-14.63.01-5.36.07-11.08,5.57-11.83,10.1-1.39,8.44,6.23,15.25,14.55,14.78,3.86-.22,7.74-.04,11.75-.04v24.92c-4.45,0-8.67-.07-12.89.02-3.2.07-6.5.62-8.75,2.93-3.6,3.69-6.1,8.11-4.12,13.5,2.13,5.8,6.42,8.43,12.98,8.43,4.21,0,8.42,0,12.83,0v24.95c-3.48,0-6.79-.12-10.08.03-3.74.18-7.43.36-10.78,2.69-4.11,2.87-6.48,8.21-5.32,12.83,1.1,4.36,7.17,9.83,11.59,9.41,4.82-.46,9.72-.1,14.69-.1,0,5.18.51,9.88-.1,14.44-1.36,10,8.64,18.06,17.22,17.5,4.62-.3,9.28-.05,14.15-.05,1.26,9.11-3.28,19.95,9.5,25.9,10.27,1.43,15.74-3.33,15.75-15.14,0-3.45,0-6.9,0-10.55h24.94c0,3.39,0,6.6,0,9.8,0,3.81.26,7.41,2.73,10.76,3.09,4.2,8.64,6.68,14,4.87,3.62-1.22,8.31-5.43,8.3-10.7,0-4.85,0-9.7,0-14.7h24.92c0,3.98-.14,7.7.03,11.41.22,4.83,1.4,9.35,5.68,12.32,5.16,3.59,12.81,2.96,17.28-2.41,3.93-7.43,2.05-14.57,2.39-21.58,5.71,0,11.1.03,16.49-.02,1.98-.02,4.05-.06,5.8-1.09,6.78-3.99,9.8-9.94,9.36-17.81-.23-4.18-.04-8.39-.04-12.56,8.59-1.68,18.23,2.96,24.73-6.3.08-.31.31-1.1.5-1.9.97-4.19,1.82-8.06-1.59-12.01-3.49-4.05-7.66-5.05-12.52-5.04ZM168.3,160.54c0,3.41-1.48,4.58-4.69,4.49-4.41-.12-8.82-.09-13.23-.05-3.15.03-4.43-1.39-4.41-4.56.06-16.85.02-33.69-.03-50.54,0-.99.44-2.13-.73-3.15-4.49,13.97-8.94,27.8-13.44,41.79h-21.8c-4.39-13.78-8.8-27.62-13.55-42.54-.15,1.94-.29,2.89-.29,3.84-.01,16.68-.08,33.36.04,50.04.03,3.7-1.18,5.38-5.05,5.16-5.51-.31-11.08.38-16.22-.44-1.24-1.59-1.21-2.95-1.21-4.26.07-27.3.18-54.6.22-81.9,0-2.16.89-3.46,2.97-3.48,9.9-.06,19.8,0,29.7.05.31,0,.63.19,1.39.44,4.22,14.29,8.51,28.79,12.8,43.3.29.05.58.1.87.15,4.53-14.59,9.07-29.17,13.66-43.95,10.35,0,20.48-.03,30.62.03,1.76.01,2.38,1.37,2.42,2.92.08,2.57.1,5.14.1,7.71-.06,24.98-.16,49.95-.15,74.93Z"/>
    <rect class="cls-4" x="48.86" y="48.46" width="143.67" height="143.67" rx="10.57" ry="10.57"/>
    <path class="cls-3" d="M165.55,75.28c-10.14-.06-20.27-.03-30.62-.03-4.59,14.78-9.12,29.36-13.66,43.95-.29-.05-.58-.1-.87-.15-4.29-14.51-8.58-29.01-12.8-43.3-.77-.25-1.08-.44-1.39-.44-9.9-.04-19.8-.1-29.7-.05-2.08.01-2.96,1.32-2.97,3.48-.04,27.3-.15,54.6-.22,81.9,0,1.31-.03,2.67,1.21,4.26,5.13.82,10.7.13,16.22.44,3.87.22,5.07-1.46,5.05-5.16-.12-16.68-.06-33.36-.04-50.04,0-.95.14-1.9.29-3.84,4.75,14.91,9.16,28.76,13.55,42.54h21.8c4.5-13.99,8.94-27.82,13.44-41.79,1.18,1.01.73,2.16.73,3.15.04,16.85.09,33.69.03,50.54-.01,3.17,1.26,4.59,4.41,4.56,4.41-.04,8.82-.07,13.23.05,3.21.09,4.69-1.08,4.69-4.49-.01-24.98.09-49.95.15-74.93,0-2.57-.02-5.14-.1-7.71-.05-1.55-.67-2.91-2.42-2.92Z"/>
    <g>
      <path class="cls-2" d="M372.64,135.48c-.13-.49-.54-.78-.71-.89-7.15-4.87-14.15-9.95-21.35-14.75-4.85-3.24-7.95-5.93-8.98-6.85-3.54-3.13-6.16-6.05-7.88-8.11,18.27.05,31.65-.03,32.44-.05.12,0,.6-.03.98-.42.22-.22.31-.45.35-.59.02-4.96.04-9.91.06-14.87,0-.78-.62-1.42-1.39-1.42-8.12.04-16.23.08-24.35.12,4.03-4.67,7.45-8.18,9.86-10.55,2.43-2.39,4.46-5.14,6.77-7.64,1.93-2.09,4.11-4.37,3.5-6.38-.2-.66-.63-1.08-.87-1.29-3.46-2.9-6.93-5.8-10.39-8.7-.41-.25-1.2-.63-2.04-.42-.82.21-1.3.88-1.47,1.12-3.4,4.75-5.17,7.07-5.2,7.12,0,0-1.32,2.51-13.36,16.27-.12.14-.48.54-.48,1.08,0,.5.31.88.49,1.07,2.96,2.73,5.93,5.46,8.89,8.2h-10.94v-37.5c0-.78-.62-1.42-1.39-1.42h-15.19c-.77,0-1.39.64-1.39,1.42v37.5h-13.87l10.91-9.45c.55-.48.65-1.31.23-1.91-1.08-1.54-2.47-3.35-4.11-5.37-1.64-2.02-3.6-4.28-5.8-6.7-2.13-2.43-4.13-4.59-5.93-6.43-1.8-1.83-3.5-3.43-5.06-4.75-.53-.45-1.31-.43-1.82.04l-10.51,9.67c-.29.27-.46.65-.46,1.05s.17.78.46,1.05c.96.88,2.1,2.06,3.39,3.49,1.33,1.47,2.71,3.04,4.15,4.7,1.44,1.66,2.87,3.36,4.26,5.04,1.41,1.71,2.71,3.27,3.89,4.68,1.17,1.39,2.11,2.54,2.83,3.44.86,1.09,1.04,1.35,1.04,1.35.02.03.03.06.05.09h-23.14c-.77,0-1.39.64-1.39,1.42v14.45c0,.78.62,1.42,1.39,1.42,10.73.14,21.47.29,32.2.43-3.44,3.44-6.64,6.34-9.41,8.73-4.74,4.08-8.53,6.9-9.53,7.64-5.15,3.8-7.72,5.7-9.46,6.47,0,0-1.99,2.06-9.47,6.03-.37.2-.63.55-.72.96-.09.41.01.84.27,1.18,3.31,4.84,6.62,9.68,9.93,14.51,2.17-1.39,5.05-3.3,8.34-5.71,1.13-.83,4.24-3.11,8.34-6.5,6.58-5.43,8.21-7.48,15.62-13.59,1.43-1.18,2.61-2.13,3.36-2.73v32.48c0,.78.62,1.42,1.39,1.42h15.19c.77,0,1.39-.64,1.39-1.42v-32.91c2.78,2.65,6.21,5.83,10.21,9.33,10.52,9.2,9.2,6.82,12.78,10.6,0,0,7.52,6.23,12.33,9.29.65.41,1.5.21,1.91-.45l8.68-14c.21-.34.27-.75.17-1.13Z"/>
      <g>
        <path class="cls-2" d="M481.65,98.3h-43.96c-.78,0-1.42.63-1.42,1.42v51.72c0,.78.63,1.42,1.42,1.42h43.96c.78,0,1.42-.63,1.42-1.42v-51.72c0-.78-.63-1.42-1.42-1.42ZM467.34,137.4h-15.33v-4.1h15.33v4.1ZM467.34,118.08h-15.33v-4.1h15.33v4.1Z"/>
        <path class="cls-2" d="M485.91,80.91h-8.67v-6.03h6.54c.78,0,1.42-.63,1.42-1.42v-13.3c0-.78-.63-1.42-1.42-1.42h-6.54v-9.15c0-.78-.63-1.42-1.42-1.42h-12.56c-.78,0-1.42.63-1.42,1.42v9.15h-4.46v-9.15c0-.78-.63-1.42-1.42-1.42h-12.45c-.78,0-1.42.63-1.42,1.42v9.15h-5.54c-.56,0-1.04.32-1.27.79v-5.86c0-.78-.63-1.42-1.42-1.42h-48.55c-.78,0-1.42.63-1.42,1.42v12.96c0,.78.63,1.42,1.42,1.42h11.48v5.24h-9.91c-.78,0-1.42.63-1.42,1.42v76.27c0,.78.63,1.42,1.42,1.42h46.2c.78,0,1.42-.63,1.42-1.42v-54.75c.26.29.63.46,1.05.46h50.35c.78,0,1.42-.63,1.42-1.42v-12.96c0-.78-.63-1.42-1.42-1.42ZM421.7,136.6h-23.18v-3.98h23.18v3.98ZM421.7,117.28h-19.16c1.54-2.24,2.74-4.23,3.57-5.91.83-1.69,1.57-3.33,2.19-4.91,1.19-3.22,1.77-7.95,1.77-14.47v-3.02h.08v13.36c0,3.98.93,7.04,2.78,9.08,1.84,2.04,4.77,3.29,8.61,3.69l.17.03v2.16ZM442.11,80.91h-6.54c-.42,0-.79.18-1.05.46v-6.66c0-.78-.63-1.42-1.42-1.42h-9.57v-5.24h10.36c.56,0,1.04-.32,1.27-.79v6.2c0,.78.63,1.42,1.42,1.42h5.54v6.03ZM461.85,80.91h-4.46v-6.03h4.46v6.03Z"/>
      </g>
      <path class="cls-2" d="M608.47,127.84c-4.56-1.17-9.11-2.33-13.67-3.5-.16-20.74-.33-41.47-.49-62.21,0-.79-.63-1.43-1.42-1.43h-34.31v-10.58c0-.79-.63-1.43-1.42-1.43h-14.6c-.78,0-1.42.64-1.42,1.43v10.58h-32.96c-.78,0-1.42.64-1.42,1.43v66c0,.79.63,1.43,1.42,1.43h32.96v6.12c0,3.15.28,5.89.83,8.12.57,2.35,1.57,4.34,2.95,5.92,1.39,1.59,3.28,2.81,5.6,3.61,2.2.76,4.97,1.27,8.25,1.51,1.43.07,3.35.15,5.76.23,2.44.08,4.95.11,7.46.11s5-.02,7.33-.06c2.4-.04,4.24-.14,5.62-.29,3.19-.31,5.93-.72,8.16-1.23,3.05-.7,5.13-2.13,5.99-2.65,1.51-.92,3.64-2.22,5.55-4.66,1.81-2.3,2.48-4.4,3.28-6.89.81-2.52,1.79-5.71,1.06-9.61-.15-.82-.35-1.48-.5-1.94ZM541.15,112.97h-17.16v-9.73h17.16v9.73ZM541.15,87.12h-17.16v-9.84h17.16v9.84ZM558.59,77.28h18.51v9.84h-18.51v-9.84ZM558.59,103.24h18.51v9.73h-18.51v-9.73ZM590.3,133.5c-.06.19-.43,1.31-.83,1.94-1.12,1.76-3.83,1.83-12.61,1.89-7.06.05-.21-.03-7.33-.06-5.89-.02-7.51.05-8.56-1.22-1.02-1.24-1.31-3.54-1.44-4.56-.1-.8-.12-1.48-.11-1.95,10.48.04,20.96.08,31.44.12.02.9-.05,2.27-.56,3.83Z"/>
      <path class="cls-2" d="M721.16,93.62h-39.92v-.2c6.24-3.1,12.4-6.63,18.31-10.49,6.14-4.01,12.31-8.35,18.34-12.9.35-.27.56-.69.56-1.13v-14.44c0-.78-.63-1.42-1.42-1.42h-87.02c-.78,0-1.42.63-1.42,1.42v14.32c0,.78.63,1.42,1.42,1.42h54.17c-.81.75-2.1,1.91-3.75,3.22-3.49,2.77-5.95,4.13-9.75,6.58-1.85,1.19-4.54,2.98-7.75,5.33-.03,2.76-.06,5.52-.1,8.29h-41.41c-.78,0-1.41.63-1.41,1.42v15c0,.78.63,1.42,1.41,1.42h41.41v21.77c0,1.22-.04,2.25-.11,3.05-.05.57-.06,1.11-.42,1.34-.35.22-.82.04-1.08-.04-1.08-.36-2.28-.11-3.42-.17-2.27-.12-2.51.11-5,.04-2.39-.07-4.79.16-7.17-.08-.27-.03-.93-.1-1.29.29-.44.48-.17,1.38-.04,1.75,1.43,4.35,2.86,8.69,4.29,13.04.11.5.34,1.22.92,1.83,1.16,1.24,2.98,1.26,4.12,1.25,9.2-.06,11.21-.21,11.21-.21,4.83-.36,5.78-.39,7.58-.96,1.76-.56,3.69-1.19,5.38-2.95,1.68-1.74,2.36-3.6,2.76-5.45.44-2.03.66-4.52.66-7.4v-27.11h39.92c.78,0,1.41-.63,1.41-1.42v-15c0-.78-.63-1.42-1.41-1.42Z"/>
      <path class="cls-2" d="M839.47,131.72h-40.52v-59.68h33.89c.78,0,1.42-.63,1.42-1.42v-15.57c0-.78-.63-1.42-1.42-1.42h-86.74c-.78,0-1.42.63-1.42,1.42v15.57c0,.78.63,1.42,1.42,1.42h33.55v59.68h-40.41c-.78,0-1.42.63-1.42,1.42v15.35c0,.78.63,1.42,1.42,1.42h100.22c.78,0,1.42-.63,1.42-1.42v-15.35c0-.78-.63-1.42-1.42-1.42Z"/>
      <path class="cls-2" d="M955.36,61.13h-39.83c.46-1.11.9-2.22,1.3-3.32.65-1.74,1.31-3.52,2-5.34.14-.37.12-.79-.06-1.14-.18-.35-.5-.62-.88-.72l-14.29-3.98c-.73-.2-1.49.2-1.73.93-2.48,7.62-5.66,15.09-9.45,22.22-3,5.64-6.11,10.87-9.28,15.62v-12.58c1.19-3.03,2.37-6.23,3.52-9.52,1.16-3.3,2.38-6.9,3.73-10.99.12-.36.09-.76-.09-1.1-.18-.34-.48-.59-.85-.7l-13.84-4.21c-.36-.11-.76-.07-1.09.11-.33.18-.58.49-.68.86-1.13,4.04-2.62,8.43-4.42,13.05-1.81,4.65-3.82,9.34-5.97,13.95-2.16,4.62-4.45,9.15-6.82,13.44-2.37,4.3-4.71,8.14-6.96,11.42-.42.61-.3,1.43.27,1.9l11.21,9.21c.31.26.72.37,1.12.31.4-.06.75-.29.97-.63l1.97-3.03v46.25c0,.78.63,1.42,1.42,1.42h15.09c.78,0,1.42-.63,1.42-1.42v-57.07l8.02,6.03c.62.47,1.5.35,1.98-.27,2.9-3.8,5.62-7.74,8.08-11.71,2.03-3.29,3.95-6.68,5.73-10.12v73.83c0,.78.63,1.42,1.42,1.42h14.98c.78,0,1.42-.63,1.42-1.42v-20.29h27.52c.78,0,1.42-.63,1.42-1.42v-15.12c0-.78-.63-1.42-1.42-1.42h-27.52v-10.01h25.11c.78,0,1.42-.63,1.42-1.42v-14.89c0-.78-.63-1.42-1.42-1.42h-25.11v-9.21h30.6c.78,0,1.42-.63,1.42-1.42v-14.66c0-.78-.63-1.42-1.42-1.42Z"/>
      <path class="cls-2" d="M1074.36,137.97h-41.39v-4.55h31.04c.78,0,1.42-.63,1.42-1.42v-13.19c0-.78-.63-1.42-1.42-1.42h-2.25l8.41-9.22c.49-.53.5-1.35.02-1.89-2.83-3.22-6.98-7.17-12.38-11.75l-3.96-3.29h9.69c.78,0,1.42-.63,1.42-1.42v-10.52h8.59c.78,0,1.42-.63,1.42-1.42v-19.1c0-.78-.63-1.42-1.42-1.42h-39.96l-2.28-8.83c-.17-.67-.81-1.12-1.49-1.06l-16.17,1.36c-.42.04-.8.25-1.04.59-.24.34-.32.77-.21,1.18.61,2.31,1.17,4.58,1.68,6.75h-39.86c-.78,0-1.42.63-1.42,1.42v19.1c0,.78.63,1.42,1.42,1.42h8.47v10.52c0,.78.63,1.42,1.42,1.42h11.51c-1.07.86-2.12,1.69-3.13,2.46-1.91,1.47-3.64,2.66-5.15,3.54-1.12.66-2.24,1.28-3.31,1.84-.94.49-1.91.8-2.9.93-.38.05-.71.25-.94.55-.23.3-.33.68-.28,1.06l1.63,11.71c.1.69.68,1.21,1.38,1.22,5.55.08,11.18.06,16.74-.06,5.06-.1,10.15-.22,15.25-.36v3.26h-31.39c-.78,0-1.42.63-1.42,1.42v13.19c0,.78.63,1.42,1.42,1.42h31.39v4.55h-41.86c-.78,0-1.42.63-1.42,1.42v12.62c0,.78.63,1.42,1.42,1.42h101.32c.78,0,1.42-.63,1.42-1.42v-12.62c0-.78-.63-1.42-1.42-1.42ZM1055.75,115.62c.57.62,1.11,1.21,1.64,1.77h-24.42v-3.81c3.26-.13,6.47-.27,9.64-.4,3.37-.14,6.82-.32,10.27-.53,1.04,1.03,2.01,2.03,2.87,2.97ZM990.4,76.13v-3.3h66.73v3.3h-66.73ZM1009.78,99.75c1.14-.79,2.29-1.62,3.43-2.48,2.38-1.78,4.82-3.8,7.26-6.03h15.11l-2.47,2.47c-.29.29-.44.7-.41,1.11s.24.79.58,1.03c.92.68,1.91,1.41,2.95,2.2.21.16.43.33.66.51-5.44.39-10.57.68-15.27.87-4.02.16-7.98.26-11.83.31Z"/>
    </g>
    <g>
      <polygon class="cls-2" points="700.41 193.09 700.29 193.09 695.84 175.52 688.42 175.52 688.42 199.6 692.65 199.6 692.65 179.03 692.76 178.9 698.35 199.6 702.12 199.6 708.05 178.9 708.05 179.03 708.05 199.6 712.28 199.6 712.28 175.52 705.2 175.52 700.41 193.09"/>
      <path class="cls-2" d="M727.36,178.51c3.04.09,4.65,1.61,4.83,4.56h5.64c-.36-5.47-3.85-8.24-10.47-8.33-6.62.26-10.07,4.47-10.33,12.63.18,7.98,3.62,12.06,10.33,12.23,6.71-.09,10.2-2.78,10.47-8.07h-5.64c-.09,2.95-1.7,4.47-4.83,4.56-2.95-.17-4.52-3.08-4.7-8.72.18-5.73,1.75-8.68,4.7-8.85Z"/>
      <path class="cls-2" d="M756.74,188.14c.08,2.86-.24,4.82-.98,5.86-.73,1.22-2.03,1.82-3.9,1.82s-3.21-.61-4.02-1.82c-.73-1.04-1.06-2.99-.97-5.86v-13.15h-4.87v15.1c.16,5.99,3.45,9.07,9.87,9.24,6.25-.17,9.5-3.25,9.75-9.24v-15.1h-4.87v13.15Z"/>
      <polygon class="cls-2" points="782.14 188.79 792.21 188.79 792.21 184.76 782.14 184.76 782.14 179.16 792.98 179.16 792.98 175.13 776.98 175.13 776.98 199.2 793.37 199.2 793.37 195.17 782.14 195.17 782.14 188.79"/>
      <rect class="cls-2" x="797.64" y="174.74" width="4.33" height="24.08"/>
      <path class="cls-2" d="M822.27,188.31c-.09-1.04-.4-2.04-.94-2.99-1.34-2.6-3.8-3.9-7.38-3.9-5.19.26-7.92,3.21-8.19,8.85-.09,5.81,2.64,8.68,8.19,8.59,4.83,0,7.47-1.73,7.92-5.21h-4.7c-.45,1.48-1.52,2.17-3.22,2.08-2.06.09-3.04-1.3-2.95-4.17h11.41c0-1.13-.05-2.21-.13-3.25ZM810.99,188.18c.09-2.34,1.07-3.51,2.95-3.51,2.06,0,3.09,1.17,3.09,3.51h-6.04Z"/>
      <path class="cls-2" d="M831.26,189.46c.28-3.34,1.07-5.01,2.37-5.01,1.67,0,2.6,1.08,2.79,3.25h5.3c-.19-4.24-2.84-6.45-7.96-6.63-4.93.36-7.63,3.43-8.1,9.2.37,5.78,3.07,8.75,8.1,8.93,5.02,0,7.68-2.21,7.96-6.63h-5.3c-.09,2.26-.98,3.38-2.65,3.38-1.49,0-2.33-1.8-2.51-5.41v-1.08Z"/>
      <path class="cls-2" d="M927.16,189.69c.28-3.34,1.07-5.01,2.37-5.01,1.67,0,2.6,1.08,2.79,3.25h5.3c-.19-4.24-2.84-6.45-7.96-6.63-4.93.36-7.63,3.43-8.1,9.2.37,5.78,3.07,8.75,8.1,8.93,5.02,0,7.68-2.21,7.96-6.63h-5.3c-.09,2.26-.98,3.38-2.65,3.38-1.49,0-2.33-1.8-2.51-5.41v-1.08Z"/>
      <path class="cls-2" d="M854.41,195.73c-1.36.26-1.97-.65-1.8-2.73v-7.81h3.37v-3.38h-3.37v-5.08c-1.56,0-3.12,0-4.69,0,0,1.69,0,3.39,0,5.08h-3.13v3.38h3.13c0,3.23-.02,6.45-.03,9.68.03.49.17,2.15,1.47,3.24.82.7,1.73.84,2.75,1,.82.13,2.18.24,3.88-.17,0-1.11,0-2.23-.01-3.34-.48.09-1,.13-1.56.13Z"/>
      <path class="cls-2" d="M999.9,195.61c-1.36.26-1.97-.65-1.8-2.73v-7.81h3.37v-3.38h-3.37v-5.08c-1.56,0-3.12,0-4.69,0,0,1.69,0,3.39,0,5.08h-3.13v3.38h3.13l-.03,9.68c.03.49.17,2.15,1.47,3.24.82.7,1.73.84,2.75,1,.82.13,2.18.24,3.88-.17v-3.34c-.5.09-1.02.13-1.58.13Z"/>
      <path class="cls-2" d="M863.85,184.64h-.13v-3.25h-4.7c0,.54.04,1.31.13,2.3v15.17h5.1v-9.21c.18-1.08.4-1.94.67-2.57.45-.54,1.3-.95,2.55-1.22h2.28v-4.6c-2.95-.18-4.92.95-5.91,3.39Z"/>
      <path class="cls-2" d="M881.19,181.41c-5.4.26-8.23,3.21-8.49,8.85.25,5.55,3.08,8.42,8.49,8.59,5.4-.17,8.23-3.04,8.49-8.59-.25-5.64-3.08-8.59-8.49-8.85ZM881.19,195.73c-2.28,0-3.42-1.82-3.42-5.47s1.14-5.6,3.42-5.6c2.45,0,3.63,1.87,3.55,5.6,0,3.64-1.18,5.47-3.55,5.47Z"/>
      <path class="cls-2" d="M908.77,185.85c-.08-.78-.14-1.32-.38-1.9-.5-1.26-1.5-1.96-1.82-2.16-1.45-.93-2.93-.77-3.33-.71-.79-.01-2.53.08-4.12,1.26-.46.34-.82.71-1.1,1.06,0-.67,0-1.34-.01-2h-5.1v17.48h5.1v-10.43c.27-2.53,1.3-3.88,3.09-4.07,2.06,0,3.09,1.36,3.09,4.07v10.43c1.56,0,3.12,0,4.68.01,0-3.79-.02-7.57-.03-11.36.01-.42,0-.99-.07-1.67Z"/>
      <rect class="cls-2" x="913.06" y="174.68" width="4.81" height="4.29"/>
      <rect class="cls-2" x="913.18" y="181.97" width="4.58" height="16.79"/>
      <path class="cls-2" d="M950.52,188.05c-2.08-.52-3.12-1.13-3.12-1.82,0-1.04.62-1.56,1.87-1.56,1.33.09,2.04.65,2.12,1.69h4.37c-.25-3.3-2.41-4.95-6.49-4.95-4.41.35-6.7,2-6.86,4.95-.17,2.86,1.79,4.69,5.86,5.47,2.08.44,3.16,1.13,3.24,2.08,0,1.22-.75,1.82-2.24,1.82-1.58-.09-2.45-.74-2.62-1.95h-4.49c.17,3.3,2.54,4.99,7.11,5.08,4.57-.35,6.99-2.08,7.24-5.21-.67-3.47-2.66-5.34-5.99-5.6Z"/>
      <path class="cls-2" d="M980.42,184.99c-.32-.09-.51-.13-.59-.13-2.84-.43-4.18-1.56-4.02-3.38.08-1.91,1.26-2.95,3.55-3.12,2.29,0,3.47,1.22,3.55,3.64h4.5c-.24-4.69-2.72-7.16-7.45-7.42-5.84.35-8.87,2.99-9.11,7.94,0,3.21,2.4,5.42,7.22,6.64.16.09.43.17.83.26,2.76.61,4.14,1.74,4.14,3.38-.08,2-1.54,3.04-4.38,3.12-2.45-.17-3.67-1.65-3.67-4.43h-4.73c-.08,5.29,2.72,7.94,8.4,7.94,6.15-.17,9.26-2.78,9.34-7.81.08-3.3-2.45-5.51-7.57-6.64Z"/>
      <path class="cls-2" d="M1020.78,181.81h-3.98c0,3.43.01,6.87.02,10.3,0,.19-.07,2.13-1.58,3.1-.96.62-2.02.54-2.38.52-.37-.03-1.06-.05-1.65-.47-.81-.57-1.24-1.68-1.29-3.31v-10.15h-4.23c-.01,3.67-.03,7.34-.04,11.01-.01.42.01,1.04.21,1.75.62,2.23,2.61,4.11,4.98,4.62,2.07.45,3.82-.28,4.27-.48.4-.17.72-.36.95-.5,0,.34,0,.68.01,1.02,1.58-.01,3.15-.03,4.73-.04,0-1.2-.01-2.39-.02-3.59v-13.8Z"/>
      <path class="cls-2" d="M1042.61,174.52h-4.95v9.24c-1.1-1.47-2.58-2.26-4.44-2.34-4.74.26-7.27,3.21-7.61,8.85.34,5.55,2.71,8.42,7.1,8.59,2.37,0,4.01-.87,4.95-2.6,0,.26.04.65.13,1.17v1.17h4.95c-.09-1.04-.13-2.17-.13-3.38v-20.69ZM1034.24,195.73c-2.45,0-3.64-1.82-3.55-5.47-.09-3.73,1.1-5.6,3.55-5.6,2.11.17,3.25,2.04,3.42,5.6-.17,3.47-1.31,5.29-3.42,5.47Z"/>
      <rect class="cls-2" x="1046.8" y="174.52" width="4.96" height="4.29"/>
      <rect class="cls-2" x="1046.92" y="181.81" width="4.71" height="16.79"/>
      <path class="cls-2" d="M1063.98,181.41c-5.35.26-8.14,3.21-8.39,8.85.25,5.55,3.05,8.42,8.39,8.59,5.34-.17,8.14-3.04,8.39-8.59-.25-5.64-3.05-8.59-8.39-8.85ZM1063.98,195.73c-2.25,0-3.38-1.82-3.38-5.47s1.13-5.6,3.38-5.6c2.42,0,3.59,1.87,3.51,5.6,0,3.64-1.17,5.47-3.51,5.47Z"/>
    </g>
  </g>
</svg>